<?xml version="1.0" encoding="utf-8"?>
<!-- Generator: Adobe Illustrator 23.0.1, SVG Export Plug-In . SVG Version: 6.00 Build 0)  -->
<svg version="1.1" id="Layer_1" xmlns="http://www.w3.org/2000/svg" xmlns:xlink="http://www.w3.org/1999/xlink" x="0px" y="0px"
	 viewBox="0 0 320.8 155.3" style="enable-background:new 0 0 320.8 155.3;" xml:space="preserve">
<style type="text/css">
	.st0{fill:#FFFFFF;}
</style>
<path class="st0" d="M134,94.9c-0.2,0.2-0.2,0.4-0.4,0.4 M138,65.4c0.4,0,0.8-0.4,0.8-0.8s-0.5-0.8-0.8-0.8c-0.4,0-0.8,0.4-0.8,0.8
	S137.4,65.4,138,65.4z M174.6,31.9H146V55c0,2.2,1,4.1,2.2,4.7l11,6.5c0.2,0.2,0.6,0.4,1,0.4s0.6-0.2,1-0.4l11.2-6.7
	c1.4-0.6,2.2-2.6,2.2-4.7L174.6,31.9L174.6,31.9z M155.5,38.6h-2.6v-5.9h2.6V38.6z M153.7,40.5l0.4-0.4l-0.2-0.3h0.4l0.2-0.4
	l0.2,0.4h0.4l-0.2,0.4l0.4,0.4h-0.4V41l-0.4-0.4l-0.4,0.4v-0.4C154.1,40.6,153.7,40.5,153.7,40.5z M146.8,48v-5.5h3V48
	C149.8,48,146.8,48,146.8,48z M147.4,39.8h0.4l0.2-0.4l0.2,0.4h0.4l-0.2,0.4l0.4,0.4h-0.4V41l-0.4-0.4l-0.4,0.4v-0.4h-0.4l0.4-0.4
	L147.4,39.8z M150.8,45.5h0.4l0.2-0.4l0.2,0.4h0.4l-0.2,0.4l0.4,0.4h-0.4v0.4l-0.4-0.4l-0.4,0.4v-0.4h-0.4l0.4-0.4L150.8,45.5z
	 M152.7,40.9c0-0.2-0.2-0.2-0.4-0.2s-0.4,0.4-0.6,0.4s-0.2,0-0.2-0.2s0.4-0.2,0.4-0.4c-1.8,0-2,0.8-2.2,0.8c-0.4,0,0.4-1,0.6-1.2
	c-0.4,0-0.6-0.6-1-0.8c0.2-0.2,0.4-0.2,0.6,0c0-0.2,0.2-0.4,0.6-0.4c0.8,0,0.6,0.8,0.8,0.8s0-0.8,0.6-0.8c0.8,0,1.8,2.2,1,2.2
	C152.3,41.3,152.7,41.1,152.7,40.9L152.7,40.9z M150.6,34.8l0.4-0.4l-0.2-0.4h0.4l0.2-0.4l0.2,0.4h0.4l-0.2,0.4l0.4,0.4h-0.4v0.4
	l-0.5-0.4l-0.4,0.4v-0.4H150.6L150.6,34.8z M149.8,32.7v5.9h-3v-5.9H149.8z M155.5,63.2l-6.9-4.1c-1.2-0.8-1.8-2.2-1.8-3.7v-6.6h8.7
	C155.5,48.8,155.5,63.2,155.5,63.2z M153.1,48v-5.5h2.6V48H153.1z M164.4,63.6l-3.2,2c-0.2,0.2-0.6,0.2-0.8,0.2s-0.6-0.2-0.8-0.4
	l-3.2-2V48.6h8.1L164.4,63.6z M164.4,48h-8.1V32.7h8.1V48z M173.8,55.1c-0.2,1.6-0.8,3-1.8,3.7l-6.9,4.1V48.6h8.7V55.1z M173.8,48
	h-8.7V32.7h8.7V48z"/>
<path class="st0" d="M155.1,53.9c0-0.2-1,0.4-0.8,0.4c0-0.4,0.6-1,0.8-1.2c0-0.4-0.6,0-1,0.2c1.6-2.4,0.6-1.4-0.4-1.2
	c1.4-1.6,1-1.6,0-1c0.8-0.6,1-1.4,1-1.8c-0.8,1-1.6,0.8-1.6,1.8c0,0.6-0.2,1.8-0.6,2c-0.4,0.4-0.2-1.8-1.2-1.8c-0.4,0-1.2,0-1.4,0.4
	c0.2,0,0.6,0.6,0.6,0.8s0.2,0.8-0.2,0.8s-0.8-0.8-0.8-1.2v-0.8c0-1-1.6-2.2-2.2-2.2c0,0.6,0.8,0.8,0.8,1.6c-0.4,0-0.8-0.6-0.8-0.2
	c0,0.4,0.6,0.4,0.6,0.8s-0.6-0.2-0.6,0.2s0.4,0.2,0.4,0.6h-0.6c0,0.2,0,0.2,0.2,0.4c0,0-0.2,0.2-0.2,0.8c0,1.8,1.2,2.8,2,2.8
	c0.6,0,0.6-0.4,0.6-0.6c0,0.4,0.4-0.2,0.4,0.4c0,0.6-0.6,0.4-0.6,0.8c0,0.6,1,0,1,0.8s-0.1,0.8-0.1,1.2c0,0.2,1-0.4,1-0.4
	c0.2,0,0.2,0.8,0.6,0.8c0.2,0,0.4-0.8,0.6-0.8c-0.2,0,0.8,0.6,0.8,0.4c0-0.8-0.4-0.4-0.4-1s1.2-0.4,1-0.8c-0.2-0.2-0.2,0-0.4-0.4
	c0,0-1-1.4,0.2-0.6C154.9,56.7,155.1,54.1,155.1,53.9L155.1,53.9z M185.4,60c0.6,0,1-0.4,1-0.8s-0.4-0.8-1-0.8s-1,0.4-1,0.8
	C184.6,59.7,185,60,185.4,60z M181.7,62.2c0.6,0,1-0.4,1-0.8s-0.4-0.8-1-0.8s-1,0.4-1,0.8S181.3,62.2,181.7,62.2z M136.6,67.5
	c0.6,0,1-0.4,1-0.8s-0.4-0.8-1-0.8s-1,0.4-1,0.8S136,67.5,136.6,67.5z M139.5,67.7c0.6,0,1-0.4,1-0.8s-0.4-0.8-1-0.8s-1,0.4-1,0.8
	S138.9,67.7,139.5,67.7z M220.7,28.3c1.4,1.6,1.8,4.3,0.8,6.3c-0.6,0-0.4-0.8-0.6-1.2c-1-1.8-1.8-4.1-1-6.3
	C220.7,27.1,220.3,28.1,220.7,28.3z M101.5,30.7c-0.4,1.2-0.4,3,0,3.9c-0.2,0.2-0.2-0.2-0.4-0.2c-2-1.4-1-4.1-1.6-6.1
	c0.2-0.2,0.4-0.2,0.4-0.2C100.9,28.7,101.3,29.7,101.5,30.7z M225,30.9c0.2,0.6-0.2,1.2-0.6,1.4c-0.4,0.2-1-0.2-1.2-0.6
	c-0.2-0.6,0.2-1,0.6-1.4C224.2,30.3,224.6,30.3,225,30.9z M98.5,33.1c-0.2,0.4-0.2,1-0.6,1.2c-0.4,0-0.8,0-1-0.2
	c-0.4-0.2-0.4-0.8-0.2-1c0.2-0.4,0.6-0.4,1-0.4C98,32.5,98.4,32.7,98.5,33.1z M227,33.8c0.2,0.4,0.2,0.6,0,0.8
	c-0.4,0.4-0.8,0.6-1.4,0.4c-0.4-0.2-0.4-0.6-0.6-0.8c0.2-0.4,0.4-0.8,0.8-1C226.4,33.3,226.6,33.6,227,33.8z M224,33.8
	c0.4,0.2,0.2,0.8,0,1s-0.6,0.6-1,0.6c-0.2-0.2-0.6-0.2-0.6-0.6c0-0.6,0.2-1,0.8-1.2C223.7,33.6,223.9,33.6,224,33.8z M220.5,34.6
	c0,0.6,0,1.2-0.6,1.4s-1-0.4-1.2-0.8c0-0.6,0.2-1,0.8-1.2C219.9,34,220.3,34.4,220.5,34.6z M103.9,34.8c0.2,0.6-0.4,0.8-0.6,1
	c-0.4,0.2-0.8-0.2-1-0.6c-0.4-0.4,0.2-0.6,0.2-1C103.1,34,103.7,34.4,103.9,34.8z M100.9,35c0,0.4-0.2,0.8-0.6,1s-0.8-0.2-1-0.4
	c-0.2-0.4,0-1,0.4-1.2C100.3,34.2,100.7,34.6,100.9,35z M208.5,35.2c0.4,1,1,2.4,1,3.5c-0.2,1,0.2,2.2-0.6,3
	c-0.8-0.2-0.8-1.2-1.2-1.6c-1-1.8-0.2-3.7,0.2-5.5C208.3,34.4,208.3,35,208.5,35.2z M98.5,35.8c0.2,0.6-0.2,1-0.6,1.2
	c-0.6,0.2-1-0.4-1.2-0.8c0-0.4,0.2-1,0.6-1.2C98,35.2,98.4,35.4,98.5,35.8z M216.4,37.4c0.6,1.4,0.8,3.2,0.2,4.7l-0.4,0.2
	c-0.8-1.4-1.8-2.6-2-4.1c0-1,0.2-2,0.6-3c0.4-0.2,0.6,0,0.8,0.4C215.6,36.4,215.8,37,216.4,37.4L216.4,37.4z M222.7,36.4
	c0,0.6-0.2,1-0.8,1.2c-0.4,0.2-1,0-1.2-0.6s0.2-1,0.6-1.2C221.9,35.4,222.3,36,222.7,36.4z M101.1,38c0,0.4-0.4,0.8-0.8,1
	c-0.4,0.4-0.8-0.2-1-0.4c-0.2-0.4-0.2-0.8,0-1.2s0.4-0.4,0.8-0.4C100.5,37.2,100.9,37.4,101.1,38z M103.3,37.8
	c0.2,0.4-0.4,0.8-0.6,1c-0.6,0.2-1-0.2-1.2-0.6c-0.2-0.6,0.2-0.8,0.6-1.2C102.7,36.8,102.9,37.2,103.3,37.8z M224,37.6
	c0,0.6-1,1.4-1.2,2c-0.6,1.4-1.8,2.4-3.2,2.8c-0.2,0.2-0.8,0.6-1.2,0.6c-0.2-1,0.8-2,1.4-2.8C221.1,38.8,222.5,38,224,37.6z
	 M100.1,39.8c0.8,0.8,1.2,1.6,2,2.4c0,0.2-0.2,0.6-0.4,0.6c-2.4-0.2-4.1-2.6-5.3-4.3c0.2-0.6,0.8-0.2,1.2-0.2
	C98.4,38.6,99.3,38.8,100.1,39.8z M224.6,40.3c-0.2,2.2-1.2,4.3-3.2,5.3c-0.6,0.2-1.2,0.8-1.8,0.4c1-2.2,2.6-3.9,4.3-5.9h0.6
	L224.6,40.3L224.6,40.3z M215.2,41.7c0.2,0.8-0.2,1.2-0.8,1.4c-0.6,0-1-0.4-1.2-0.8c0-0.4,0.2-1,0.8-1.2c0.2-0.2,0.4-0.2,0.6-0.2
	C214.8,41.3,214.8,41.5,215.2,41.7L215.2,41.7z M97.4,42.3c1,0.6,1.8,1.6,2.8,2.4c-0.6,0.4-1.4,0-2.2,0c-1.8-0.6-2.8-2-4.5-2.6
	c0-0.6,0.8-0.4,1-0.6C95.4,41.5,96.2,41.9,97.4,42.3z"/>
<path class="st0" d="M150.6,27.3c-2.8-1.2-4.7,1.8-7.5,1.4c-0.4,0.2-0.2,0.6-0.4,0.8c-0.2,0.2-0.4,0-0.6,0c-0.2-1.2-0.6-2.4-0.8-3.5
	c-0.2-0.4-0.2-1.2-0.4-1.8c-1.6-4.3,3.9-1,4.9-3.5c1-2.2-1.8-2.4-2.8-3.9v-0.6c-0.8-0.8-1.6-1-2.2-2.2c0.4-1.2,0.4-2.6,0.2-3.9
	c0-0.4-0.2-0.8-0.8-0.6c-1,1.4-1.6,2.4-2.6,3.5c-1-0.8-1.8-1.6-3-2.2c-0.8-0.2-1.4-0.8-2.4-0.6c-0.2,0.4,0,0.6,0.2,0.8
	c0,2,1,3.5,2.4,4.9l0.2,0.8c-1,2-0.6,4.3-1,6.7c-2.2,5.7-5.9,11.2-10.8,15.2c-2.8,3.2-6.3,6.3-6.7,10.6c-0.2,0.8,0.2,1.6-0.4,2
	c-1.6-0.6-3.3-1.4-4.7-2.4c-2.4-1.6-5.5-1.4-7.1-4.3c-0.6-1.2,0.2-2.4,0.8-3.2c1.8-1.6,1.4-4.5,0.6-6.5c-0.2,0-0.2,0.2-0.4,0.2
	c-0.2,3-2.6,4.9-1.6,8.3c0.2,1,0.8,1.6,1,2.4c-0.4-0.2-0.8-0.2-1.2-0.2c-1.2-0.2-2.2-0.6-3.3-0.4c-2.4,1-5.5-0.2-7.3,1.8
	c-0.4,0-0.8,0.2-0.6,0.6c1.2,0,2.2,0.4,3.2,0.2c1.8,0.4,3-1.2,4.1-1.8h0.4c0.4-0.6,1.4-0.2,2-0.4c3.2,0.4,5.5,1.8,8.1,3.3V49
	c-1,0.4-2.2,0.8-3.2,1.4c-1.2,0.8-2.4,2-2.8,3.3c-0.8,1.2,0.2,2.4,0.8,3.3c0,0.6,0.2,1.2,0.6,1.4c1.6-1.8,0.2-3.7,0.4-5.7
	c0.4-1.6,1.8-2.2,3.2-2.6c2.8-1.2,4.9,1.2,7.1,2.4c0,2.4,0.2,4.5-0.2,6.7c-0.8,0.2-1.6,0.4-2.4,0.4c-3.9,0.4-7.1,2.4-10.6,3.7
	c-1.6,0.6-3.5,0.6-5.1,1.2c1.2,0.4,2.6-0.2,3.7-0.2c4.9-0.8,8.7-4.5,13.8-3.7l0.2,0.2c-0.6,1.2-1.4,2.4-2.4,3.3
	c-0.2-0.6-0.2-1-0.8-1.4c-0.4-0.2-0.8,0-1.2,0.4c-0.2,0.2-0.2,0.6,0,0.8c0.2,0.4,0.6,0.6,1,0.8c-0.2,0.4-0.6,0.6-1,1
	c-1.4,2.4-4.3,1.4-5.9,3.2c-0.2,0.4-1.2,0.6-0.8,1.2c2,0.2,3.7-0.4,5.1-1.4c1.8-2,3.7-3.9,5.7-5.9c0.4,1.6-0.2,3.3-1.2,4.5
	c-0.4-0.2-0.8-0.6-1.4-0.8c-0.6,0.2-0.8,0.6-1,1c0.2,0.4,0.4,0.8,0.8,1c-1.8,1.2-3.7,1.4-5.7,1.8c-3.5,0.4-7.1,0.8-10.8,0.8
	c-1.8-0.2-3.7,0.6-5.3,0c-2,0.4-3.9-0.2-5.5,0.8c-0.2,0.2,0,0.6,0,0.8c2.4,1.6,5.5,0.4,8.1,0.8H113c1.4,0,3-0.2,4.1-0.8
	c2.6-1.4,3.9-4.1,5.3-6.7c0.4-1,0.8-2,1-3c0.4-1.8,2-3,3.7-3.2c0.2,2.6-0.2,5.1-0.8,7.7c-0.4,1.6-1.4,3.2-0.8,4.9
	c0.2,0.8,1,0.8,1.6,1c6.1-0.2,12-0.4,18.3,0.2c1.2,0.2,2.2,0.6,3.3,0.6c0.2-0.2,0.4-0.2,0.4-0.6c-0.2-0.6-0.6-1.2-1.2-1.4
	c-0.2-0.4-0.6-0.2-0.8-0.4C143.9,70,140,71,136.3,71c-2,0.2-3.9,0.6-5.5-0.6c-0.8-1-0.2-3.7-0.2-3.7c0-1.2,2.8-9.1,3.2-9.7
	c0.2-0.8,0.4-1.4,0.4-2.4c1.4-1,1.4-2.2,1.4-3.3c0.2-1.6,1-3.2,1.6-4.7c0.2-0.8,0.6-1.6,0.8-2.4c0.4-1,0.4-1.8,1-2.6
	c1.6,1,3.2,1,3.9,2.8l0.8,4.1c0,0.2,0.2,0.8,0.6,0.4c1.4-0.8,1-2.8,1-4.1c0.2-1.6-0.8-2.4-1.2-3.7c-0.4-0.2-1-1.4-1-1.4
	c-0.2-1.2-2.6-1.8-2-3.2c0.4-1.2,0.6-2.2,1.8-3c0.2,0.2,0.2,0.2,0.2,0.4h0.4v-4.1c1.6,0,3.9,0.2,5.7,0.2c0.4,0.2,0.8,0.6,1.4,0.6
	L151,30l3.9-0.8C153.3,29.3,152.1,27.3,150.6,27.3L150.6,27.3z M154.9,29.1h0.4H154.9z"/>
<path class="st0" d="M111.6,43.1c0,0.6-0.4,1-0.8,1.2c-0.4-0.2-0.8-0.2-1-0.6c-0.2-0.6,0.4-1,0.8-1.2
	C111,42.7,111.6,42.7,111.6,43.1z M108.4,43.1c0.4,0.4,0.4,0.8,0.2,1.2c-0.4,0.4-1,0.6-1.2,0.2c-0.4-0.4-0.6-0.6-0.4-1
	C107.4,43.1,108,42.7,108.4,43.1z M215.6,44.5c0.2,0.6-0.2,1-0.6,1.2c-0.6-0.2-1.2-0.2-1.2-1c0-0.4,0.4-0.6,0.8-0.8
	C215,43.9,215.4,44.3,215.6,44.5z M218.3,44.5c0.2,0.2,0.4,0.6,0.2,1c-0.2,0.2-0.4,0.2-0.4,0.4c-0.6,0.2-1-0.2-1.2-0.6
	c-0.2-0.6,0.4-0.8,0.8-1C217.7,44.1,217.9,44.3,218.3,44.5L218.3,44.5z M95.8,45.1c-0.2,0.6-0.8,0.8-1.4,0.6
	c-0.2-0.2-0.4-0.4-0.4-0.6c0-0.4,0.2-0.8,0.6-0.8C95.2,44.3,95.8,44.5,95.8,45.1z M112.7,45.9c0,0.4-0.6,0.8-0.8,1
	c-0.6,0-0.8-0.4-1.2-0.8c0-0.4,0.2-1,0.6-1C111.9,44.9,112.5,45.5,112.7,45.9z M109.8,45.7c0.2,0.2,0.4,0.6,0.2,0.8
	c-0.4,0.2-0.8,0.8-1.2,0.4c-0.4-0.2-0.6-0.4-0.6-1c0.2-0.2,0.4-0.6,0.8-0.6C109.2,45.1,109.4,45.5,109.8,45.7z M225.8,46.3
	c0,0.4-0.4,0.8-0.6,1c-0.4,0.2-0.8,0-1.2-0.2c-0.2-0.2-0.2-0.6-0.2-0.8c0.2-0.4,0.6-0.6,1-0.6C225.4,45.7,225.6,45.9,225.8,46.3z
	 M229.2,46.7c-0.2,0.4-0.4,0.8-1,1c-0.4,0-0.8-0.2-0.8-0.6c0-0.4,0.2-0.8,0.4-0.8C228.4,45.9,229,46.1,229.2,46.7L229.2,46.7z
	 M101.5,47.2c0.2,0.6-0.2,1-0.6,1.2s-0.8,0-1-0.2s-0.4-0.6-0.2-1s0.6-0.4,0.8-0.6C101.1,46.8,101.3,47,101.5,47.2z M104.1,47.8
	c0.2,0.4-0.4,0.6-0.4,0.8c-0.2,0.2-0.6,0.4-1,0.2c-0.4-0.4-0.8-0.8-0.4-1.2C102.7,46.8,103.7,47.2,104.1,47.8z M222.9,47.6
	c0,0.4-0.4,0.8-0.8,1.2c-0.4,0.2-1-0.2-1-0.6c0-0.4,0.2-0.8,0.6-1C222.3,47,222.7,47,222.9,47.6z M227,48.4c-0.2,0.4,0,1-0.6,1.2
	c-0.4,0.2-1,0-1.2-0.2s-0.4-0.8-0.2-1c0.2-0.4,0.8-0.8,1.2-0.6C226.6,47.8,226.8,48.2,227,48.4z M99.7,49.4c0.2,0.4-0.2,0.6-0.4,0.8
	c-0.4,0.2-0.8,0-1-0.2c-0.4-0.2-0.2-0.8-0.2-1C98.5,48.2,99.5,48.8,99.7,49.4z M223.9,50.4c0.2,0,0.2,0.4,0,0.4
	c-1.2,0.6-3,0.8-3.9-0.2c-0.6-0.6-1.4-0.8-2-1.2c0.2-0.6,1.2-0.6,1.8-0.8C221.1,49,222.3,50.4,223.9,50.4L223.9,50.4z M102.1,49.8
	c0.2,0.4-0.2,0.6-0.4,0.8c-0.2,0.4-0.6,0.2-0.8,0.2c-0.4-0.4-0.6-0.8-0.4-1.2C101.1,49,101.7,49.4,102.1,49.8z M106.4,50.2
	c0.2,0.4-0.2,0.8-0.4,1.2c-0.4,0.2-0.6-0.2-1-0.2c-0.2-0.4-0.8-0.8-0.2-1.2C105.2,49.2,106,49.6,106.4,50.2z M164,52.4
	c-0.2,1-1.8-0.2-1.6,1.2c0.2,1,0.4,2.2,1,2.8c0.4,0.6,0.2,1.8,0.2,2.6c-0.4,0.8-1.2,1.2-2,1.6c-1.4-0.2-3.5,0.8-4.1-1
	c-0.2-0.8-0.8-1.6-0.8-2.4c0.2-0.2,0.4-0.2,0.4-0.2c0-0.4-0.4-0.6-0.4-0.8c1.6-0.2-0.6-1.8,0.8-1.8c1.2,1.2,3,0.8,3.9,2.2
	c0.2,0.2,0.4,0.4,0.8,0.6c-0.2-1.2-0.8-2.4-1-3.7c-0.2-0.7,0.2-1.5,0.6-1.7C162.8,50.8,163.6,51.8,164,52.4L164,52.4z M110.8,52
	c0.2,0.6-0.2,0.8-0.6,1s-0.8-0.4-1-0.6c-0.2-0.6,0.2-0.8,0.6-1C110.2,51.6,110.6,51.6,110.8,52z M141.5,52.6c0.6,2,0.4,3.9-0.6,5.7
	c0,0.4,0.2,1-0.4,1c-1.4-1.8-0.4-4.5,0.2-6.5C140.7,52.2,141.5,52,141.5,52.6z M184.3,53.4c0.8,1.4,0.8,3.3,0.2,4.7l-0.4,0.4
	c-0.6-1.2-1-2.4-1.2-3.5c0.2-1,0.6-1.8,0.6-2.6C184.1,52.2,184.1,53.2,184.3,53.4L184.3,53.4z M114.7,53.9c-0.4,0.6-1.2,0.8-1.8,1.2
	c-1.2,1-3,1.2-4.3,0.8c1.4-1.8,3.3-3,5.7-2.4C114.3,53.9,114.7,53.7,114.7,53.9z M94.2,55.7c1.8,1.4,2.4,3.2,3.3,4.9
	c0.2,0.2,0.6,0.2,0.4,0.6c-0.4,0.4-0.8-0.4-1.4-0.2c-2-0.8-3.2-3-3-5.1C93.8,55.7,94,55.7,94.2,55.7z M182.3,57.3c0,0.6,0,1-0.4,1.2
	c-0.6,0.2-1-0.2-1.2-0.6c-0.2-0.4,0.2-0.6,0.2-0.8C181.3,56.7,181.9,56.9,182.3,57.3z"/>
<path class="st0" d="M203.2,60c0-1,0.2-1.8,0.4-2.8c0.2-0.4,0.2-0.6,0.2-1c1.2-1.6,3.5-1.2,5.5-1c0.8,0.4,1.8,0.4,2.6,0.6
	c0.4-0.2,0.8-0.4,1.2-0.2c1.6-0.8,0.6-2.8,0.6-4.1l-0.6-1.6c-0.2-0.4-0.4-0.6-0.4-1c-0.2-0.4-0.4-1-0.8-1.4
	c-0.8-2.2-2.6-3.5-3.9-5.1c-2.6-3.3-6.5-5.1-10.4-6.5s-7.9,0.4-11.4,1.6c-1-0.4-1.6-1.2-2-2.2c-0.2-2,0.2-3.7,1-5.3
	c0.2-1.2,1-2.2,1.4-3.3c1-2.8,1.8-5.5,2-8.7c0.2-1.8-1.4-3.2-2.8-3.9c-1-0.2-2-0.2-2.8,0.6c-0.6,1.4-2,2.4-3.2,3
	c-0.2,0.8,1,0.4,1.4,0.6c1.2,0.2,2.4-0.2,3.2,0.6c0.2,2-1,3.7-2.2,5.1c-1.8,2.6-3.5,5.1-4.5,7.9l-0.3-0.2l0.2,12.2
	c1.6,2.6,3.5,5.7,6.5,6.7c1.6,1.4,3.5,3,5.7,1.8c1.2-0.4,1.2,1.2,1.8,2c0.6,1.8-0.8,3.2-0.8,4.9l-1.4,2.8c-1.6,3-2.8,6.1-5.1,8.5
	c-0.8,0-1.2,0.8-2,0.8c-0.4,0.6-1.2,0.2-1.8,0.4c-1.6,0.6-3.7,0.2-4.7,1.8c0.2,0.2,0.2,0.2,0.4,0.2c3,0,6.5,0.2,9.7,0.2
	c0.4-0.2,0.8-0.6,0.8-1c-0.4-0.8,0.2-1.6,0.6-2.2c0.2-1.2,1-2,1.4-3.2c1-2,2.2-4.1,3.3-6.1l1.6-2.6c0.4-0.8,1-2,1.6-2.8
	c0.4-0.4,0.6-0.8,1-1.4c0-0.6-0.2-0.8-0.4-1c0.4-0.4,1-0.2,1.4-0.4c1.2,0.8,2.6,2,2.8,3.3l0.4,1.4l0.2,0.6l-0.2,1.6v1.6
	c0.2,2.4-0.2,4.9-0.4,7.3c-0.8,3-4.1,2.6-6.5,3.3c-0.6,0.4-1.8,0.2-1.8,1.2c3,0.6,6.3,0.2,9.3,0.2c0.4-0.2,0.6-0.6,0.8-1.2
	s0.8-1.2,0.6-2c-0.6-0.8,0-1.8-0.2-2.8c0.2-0.2,0.2-0.6,0-1c0.4-1.4,0.4-3.2,0.6-4.5L203.2,60L203.2,60z M227.8,58.1
	c-1.6,2.2-3.3,4.7-6.1,5.7c-0.2,0-0.4,0.2-0.4-0.2c1.8-1.8,2.6-4.5,5.3-5.3C226.8,58.1,227.4,57.9,227.8,58.1z M91.9,60.4
	c-0.2,0.2,0,0.6-0.4,0.8s-0.8,0-1-0.4c-0.2-0.6,0.2-1,0.6-1.2C91.3,59.9,91.7,60,91.9,60.4z M106.2,61.2c0.2,0.4-0.4,0.4-0.6,0.6
	c-2.2,0.8-4.1,0-5.7-1.4c0-0.2,0-0.4,0.2-0.4C102.1,60.4,104.5,60,106.2,61.2z M94.6,60.6c0.2,0.2,0.2,0.6,0.2,0.8
	c-0.4,0.4-0.8,0.6-1.2,0.4s-0.4-0.4-0.6-0.6c0-0.6,0.4-0.8,0.8-1C94,60.2,94.2,60.2,94.6,60.6z M141.1,60.8c0.2,0.4-0.4,0.8-0.6,1
	c-0.4,0.2-0.8-0.2-1-0.4c-0.2-0.4,0-0.8,0.4-1S141.1,60.4,141.1,60.8L141.1,60.8z M229.6,61c0.2,0.4-0.2,0.8-0.6,1
	c-0.4,0.2-0.6,0-1-0.2c0-0.2-0.4-0.4-0.2-0.8s0.6-0.6,1.2-0.6L229.6,61z M232.9,60.8c0.4,0.4,0,0.8-0.2,1.2s-0.6,0.4-1,0.4
	c-0.4-0.4-0.8-0.4-0.8-1c0-0.4,0.4-0.8,0.8-0.8C232.3,60.2,232.5,60.8,232.9,60.8z M89.7,62.2c0,0.4-0.2,0.6-0.4,0.8
	c-0.2,0.2-0.4,0.4-0.8,0.2s-0.6-0.4-0.8-0.8c0.2-0.4,0.4-0.8,1-1C89.1,61.6,89.5,61.8,89.7,62.2z"/>
<path class="st0" d="M194.5,62.2c0.2,0.2,0,0.4,0,0.6c-0.4,0.4-0.8,0.8-1.2,0.4s-0.6-0.6-0.4-1C193.3,61.8,194.1,61.6,194.5,62.2
	L194.5,62.2z M97.8,63c-0.2,0.4-0.2,0.8-0.8,0.8s-0.6-0.4-0.8-0.6c0-0.4,0-1,0.4-1.2C97.2,61.8,97.8,62.4,97.8,63z M93,63.2
	c0.2,0.6-0.2,0.8-0.4,1.2c-0.6,0.2-1.2-0.2-1.4-0.8c0-0.4,0.4-1,1-1.2C92.4,62.4,92.6,62.8,93,63.2z M197.8,63c0.2,0.4,0,1-0.6,1.2
	s-1.2-0.4-1.4-0.8c0.2-0.4,0.4-1,1-1C197.3,62.4,197.6,62.6,197.8,63z M95.2,63.2c0.2,0.4-0.2,0.6-0.2,0.8c-0.2,0-0.4,0.4-0.8,0.2
	c-0.2-0.2-0.6-0.4-0.6-0.8c0-0.6,0.4-0.8,0.6-1C94.8,62.4,95.2,62.8,95.2,63.2z M226.8,63.6c-0.2,0.4-0.4,0.6-0.8,0.8
	c-0.4,0.2-0.6-0.2-1-0.4c-0.2-0.2-0.2-0.6,0-1C225.4,62.2,226.8,62.6,226.8,63.6z M230.6,63.8c-0.2,0.6-0.8,0.8-1.2,0.8
	c-0.4-0.2-1-0.6-0.6-1.2c0.2-0.2,0.2-0.4,0.6-0.4C230,62.8,230.6,63.4,230.6,63.8z M207.1,64.2c0.2,0.6-0.4,0.8-0.8,1.2
	c-0.4,0-0.6-0.2-1-0.4c-0.2-0.6,0.2-1,0.8-1.4C206.5,63.6,206.7,63.8,207.1,64.2z M193.3,64.8c0.2,0.2,0.2,0.4,0.2,0.6
	c-0.4,0.2-0.8,0.8-1.2,0.4c-0.4-0.2-0.6-0.6-0.6-1C191.9,64.4,193.1,64.2,193.3,64.8z M196.1,65.2c0,0.4,0,0.6-0.4,0.8
	c-0.4,0.4-0.8,0-1.2-0.2c-0.2-0.2-0.2-0.6,0-0.8s0.4-0.4,0.6-0.4C195.5,64.8,195.9,64.8,196.1,65.2L196.1,65.2z M111.6,65.2
	c0.4,0.4,0,0.6-0.2,1s-0.8,0.6-1.2,0.2c-0.4-0.2-0.4-0.8-0.4-1.2c0.4-0.2,0.4-0.4,0.8-0.4C111.2,64.8,111.4,65,111.6,65.2z
	 M212.4,65.4c0.2,0.6-0.4,0.8-0.8,0.8c-0.6,0.2-1-0.2-1.2-0.6c0-0.4,0.2-0.4,0.4-0.8C211.4,64.6,212,65,212.4,65.4z M209.7,65.4
	c0.2,0.6-0.4,0.8-0.6,1c-0.4,0.2-0.8,0.2-1.2-0.2c-0.2-0.2-0.2-0.4-0.2-0.8c0.4-0.2,0.4-0.6,0.8-0.6C209.1,64.8,209.5,65,209.7,65.4
	z M232.1,66c0.2,0.8-0.8,0.4-1.2,0.6c-2.2,1.2-4.7,0.4-6.7-0.4c0.2-0.6,1-0.4,1.4-0.6C227.6,64,229.8,65.8,232.1,66z M95.8,65.4
	l-0.2,0.4c-1.8,1.2-4.1,1.8-6.5,1.2l-0.2-0.4C90.9,65.2,93.2,65,95.8,65.4z M217.4,65.8c0,0.4-0.2,0.8-0.4,1c-0.4,0.2-1.2,0-1.4-0.6
	c-0.2-0.4,0.2-0.8,0.6-1C216.6,65.2,217.2,65.2,217.4,65.8L217.4,65.8z M104.7,66c-0.2,0.4-0.2,0.8-0.6,1s-1.2-0.2-1.2-0.6
	c-0.2-0.6,0.2-0.8,0.4-1C104.1,65,104.5,65.6,104.7,66z M101.3,66.2c0.2,0.4-0.2,0.6-0.2,0.8c-0.2,0.4-0.8,0.2-1,0.2
	c-0.4-0.4-0.8-0.6-0.6-1.2c0.4-0.2,0.4-0.4,0.8-0.6C100.7,65.6,101.1,65.8,101.3,66.2z M220.9,67.3c0,0.4-0.4,0.8-0.8,1
	c-0.4,0-0.8-0.2-1-0.6s-0.2-0.8,0.2-1c0.2-0.2,0.4-0.2,0.6-0.2C220.5,66.6,220.9,66.9,220.9,67.3z M97.6,66.7
	c0.2,0.4-0.2,0.6-0.2,0.8c-0.2,0.8-0.8,1.4-1,2.2c-1,1.2-2.4,1.2-3.5,1.6l-0.2-0.4C93.8,69.1,95.4,67.5,97.6,66.7z M218.3,67.9
	c0.2,0.6-0.4,0.8-0.8,1c-0.4,0-0.8-0.2-1-0.6c-0.2-0.6,0.4-0.8,0.6-1C217.7,67.1,218.3,67.5,218.3,67.9z M103.3,67.9
	C103.3,68.1,103.3,68.1,103.3,67.9c0.2,0.8-0.2,1-0.6,1.2c-0.4,0-0.8-0.2-1.2-0.4c-0.2-0.4,0-1,0.4-1.2
	C102.5,67.3,103.1,67.3,103.3,67.9z M227.6,69.3c0.4,0,0.6-0.6,1.2-0.8c0.4-0.2,1,0.2,1.2,0.6c0.2,0.6-0.2,1-0.6,1.2
	c-0.4,0.2-1.2-0.4-1,0.4c0.4,0.2,0.6,0.6,0.8,1c-0.2,0.2-0.4,0.2-0.6,0c-1.4-0.6-3-1.6-3.5-3.2c-0.2-0.4-1.2-0.8-0.6-1.2
	C225.6,67.3,226.8,68.5,227.6,69.3L227.6,69.3z M232.3,67.9c0.2,0.2,0.2,0.8,0,1c-0.2,0.6-1,0.4-1.4,0.2c-0.2-0.2-0.4-0.6-0.4-1
	c0.2-0.4,0.4-0.4,0.8-0.6C231.7,67.3,231.9,67.5,232.3,67.9L232.3,67.9z M214.2,70.5c0.4,0.6,1,1.4,1.2,2c-0.2,0.2-0.4,0.2-0.4,0.2
	c-1.8-1-3.9-2-4.5-3.9c-0.2-0.2-0.6-0.4-0.4-0.8c1.4-0.2,2.6,0.8,3.3,1.4C213.6,69.7,214,70.1,214.2,70.5L214.2,70.5z M100.5,68.7
	c0.2,0.4-0.2,0.8-0.4,1c-0.6,0.2-0.8-0.2-1.2-0.4c-0.4-0.6,0.4-1,0.8-1.2C99.9,67.9,100.1,68.3,100.5,68.7z M220.5,69.9
	c0,0.4-0.4,0.6-0.4,0.8c-0.4,0-0.8,0.2-1.2-0.2c-0.2-0.2-0.4-0.6,0-1C219.3,68.7,220.1,69.3,220.5,69.9L220.5,69.9z M232.9,70.5
	c0.2,0.6-0.4,1-0.8,1.2s-1-0.2-1.2-0.4c-0.2-0.4,0-0.6,0-1c0.4-0.4,0.8-0.6,1.4-0.4C232.3,69.9,232.9,70.5,232.9,70.5z M198.4,77.4
	c0,0.6-1.2,0.4-1.6,1c-1.6,0.8-3.3,0.8-5.3,0.8v-0.4C193.5,77.2,196.1,76.8,198.4,77.4L198.4,77.4z M125.7,79.6
	c0,0.4-0.4,0.8-0.8,0.8s-0.8-0.2-0.8-0.4c-0.2-0.6,0.4-0.8,0.6-1.2C125.3,79,125.7,79.2,125.7,79.6z M197.6,80.1
	c-0.2,0.4-0.2,1-0.8,1.2c-0.4,0.2-0.8-0.2-1.2-0.4c-0.2-0.2-0.2-0.6-0.2-0.8C195.9,79.2,197.3,79.2,197.6,80.1z M207.5,80.3
	c-1.2,0.8-2.6,1.8-4.3,1.8h-2.8l-0.2-0.2C201.8,79.9,204.9,79.9,207.5,80.3z M112.1,81.5c0,0.4-0.2,0.8-0.6,1s-0.8-0.2-1-0.4
	c-0.2-0.4,0-1,0.4-1.2C111.4,80.5,111.9,81.1,112.1,81.5z M114.7,82.1c0.2,0.2-0.2,0.4-0.2,0.6c-0.2,0.2-0.8,0.2-1,0
	c-0.4-0.2-0.4-0.6-0.4-0.8c0.2-0.4,0.4-0.2,0.6-0.4C114.1,81.5,114.5,81.7,114.7,82.1z M95.6,87c-0.4,0.6-1.4-0.2-1.8-0.4
	c-1.8-1-1.8-3-3.3-4.1c0.2-0.6,0.6,0,1,0c0.4,0.2,0.8,0.4,1,0.6C94,84.1,94.4,85.7,95.6,87z"/>
<path class="st0" d="M240.8,67.7c-0.8-1.4-2.2-2-3.7-2c-1.4,0.2-2.2,1-2.8,2c-0.4,1.2,0.2,2.2,1,2.8c0.4,0.2,0.8,0.2,1-0.2
	c0.2-0.6-0.4-0.6-0.6-1.2c-0.2-0.8,0-1.4,0.6-1.8c0.4-0.6,1.4-0.2,2-0.2c0.6,0.4,1.2,0.8,1.6,1.4c0.4,0.8,0.4,1.8,0,2.6
	c-0.6,1.2-1.8,2.2-3.2,2.6c-4.1,0.6-49.5,0.4-49.5,0.4c-5.3,0.6-11.4-1-16,1.8c-2.2,1-3.2,3.3-3.7,5.3c-1.4,1.2-2.8,2.6-3.9,3.9
	l-0.2-0.2c0.2-1.2,0.8-2.4,1-3.5c0.8-1,0.8-2.4,1.4-3.5c2-3.2,3.7-6.1,6.7-8.3c1.2-1.6,3.3-1.4,5.3-1.4c2,1,4.3,1.2,6.9,1
	c0.2-0.2,0.2-0.2,0.2-0.4c-0.8-0.6-1.8-1-2.6-1.6c-2-1-3.9,0.4-5.9,0.2c-0.2-0.2-0.2-0.2-0.2-0.4c2-1.4,4.1-2.4,6.1-3.3
	c1.8-1,3.5-1.4,5.5-2.2c0.8,0,1.4-0.6,2.2-0.2l2.6-0.8c0.2,0,0.2,0.2,0.4,0.2c2.2-0.8,5.1,0,7.7-0.2l0.4,0.4l2.4,0.6
	c1,0.2,1.4,1.2,2.2,1.2c0.4-0.8-0.6-1-0.8-1.4c1.2-0.2,2.4,0,3.3,0.6l-0.4,0.6c-0.2,0.6,0.2,1,0.6,1.2c0.4,0.2,0.6-0.2,0.8-0.2
	c0.6-0.4,0-1,0.2-1.4c3.7,0.6,7.3,1.6,10.6,3c1,0.4,1.8,1,3,1c-1-1-2.6-1.4-3.7-2c-0.8-0.6-2-0.6-2.8-1.2c0.2-0.2,0.4-0.2,0.6-0.4
	c1.8-0.2,3.2-1.4,4.3-2.8c0.2-0.4,0.6-0.2,0.6-0.6c-0.4-0.6-1.2,0.2-1.8,0.2c-2.2,0.4-3,3-5.1,3.3c-2.6-0.6-5.1-1.2-7.7-1.8
	c-1.2-0.2-2.6-0.4-3.7-0.8l-2.8-0.2h-5.1c0-0.2-0.2-0.2-0.2-0.4c1.8-0.4,3.3-1.6,5.1-2l13.4-6.1c1.4-1.2,2.6-2.6,3.7-4.1
	c0-0.4-0.2-0.8-0.6-1c-0.4-0.2-0.8-0.2-1,0.2c-0.6,0.4,0,1,0,1.6c-0.6,0.8-1.6,1.6-2.4,2c-0.2,0-13.8,6.1-13.8,6.1
	c-2,0.8-3.9,1.8-6.1,2.2l-3,0.4c-0.2,0.6-0.8,1-1.2,1.2c-0.8,0.2-1.4,0.6-2.4,0.6c-6.5,2.6-13.2,5.1-18.3,10.2
	c0.4-0.6,0.4-1.4,0.4-2.2c-0.2-0.8,0-1.6-0.6-2.2c-0.2-0.2-0.4-1-0.4-1.4l-0.8,0.4c-0.4,1.2-0.8,3.2-0.4,4.3c0.2,1,1,2,0.2,2.8
	c-2.4,3-3.7,6.5-5.3,9.7c-0.6-0.2-1-0.6-1.2-1.2c1.8-2.2,3-4.5,3.5-7.3c0.4-0.2,0.2-1,0.4-1.2c-0.2-0.8,0.4-1.6,0-2.4
	c0.4-1-1.4-2.2-0.4-2.8l-1,0.4c-2.2,2.8,1.2,7.1-1.4,9.7v0.2c-0.8,1-1,1.8-2,2.4c-1.2-0.4-1.6-1.8-2.4-3c-1.2-1-1.2-3.2-0.4-4.7
	c0.4-1.4-0.4-2.8-0.4-3.9l-0.4-0.4c-1.2,1.6-1.6,3.9-0.8,5.9c0.4,1,0.6,2.2,1.4,3c0.4,1.4,1.4,2.4,2.2,3.7c0.2,0.6-0.4,0.6-0.6,0.8
	c-0.6-0.4-0.4-1.2-1-1.6c-1.6-3.5-3.7-6.3-6.3-9.3c-0.2-0.4-0.6-0.8-0.4-1.4c1-1,1.2-2.6,0.6-3.7c-0.2-0.2-0.4-0.6-0.4-0.8l-0.8-0.6
	c0.2,1.8-1,3.3-0.6,5.1v0.2c-5.1-3.9-10.8-7.3-16.5-10l-0.4,1.2c1.4,0.4,5.3,2.8,5.3,2.8c1.8,0.6,3.3,1.8,4.9,2.6
	c6.7,3.7,11.2,10,14.4,16.9c0,0.6,0.6,1.2,0.2,1.8c-1-1.6-2.6-2.6-3.7-3.7c-0.4-2.4-1.8-4.5-3.7-5.5c-0.8-1.2-2.4-1.2-3.5-1.6
	l-18.1-0.2c-14.7-0.3-28.1,0.3-42.7,0.1c-2-0.2-4.5-1-5.1-3.2c-0.4-0.8-0.4-2,0-2.8c0.6-0.9,1.6-1,2.6-1.2c0.8,0.2,1.4,0.8,1.8,1.4
	c0,0.6-0.6,1.2-0.8,1.8c0,0.2,0.2,0.6,0.6,0.4c0.6-0.2,1.2-1,1.4-1.6c0-0.4,0.2-0.8-0.2-1.2c-0.4-1-1.4-1.8-2.4-2
	c-1.2-0.2-2.6,0.2-3.3,1.2c-1.2,1-1.2,2.8-0.8,4.1c0.8,2.2,3.2,3.7,5.3,4.1l48.4,0.2c4.7,0.2,10-0.6,14.8,0.4
	c1.8,0.6,3.5,1.8,4.1,3.7c0,0.2-0.2,0-0.4,0c-3.9-2.6-9.1-3.5-14.2-3c-2-0.2-3.7,0.6-5.5,1.2c-1,0.2-1.8-0.2-2.4-0.8
	c-1.8-1.6-4.9-1.6-7.3-1v0.4c2.4-0.2,3.9,2,6.1,2.2c0.4,0.2,1-0.4,1.4,0c-2.4,1.2-4.5,2.4-6.9,3.2c-0.8-0.2-1.2-0.8-1.8-1.2
	c-1-1-2.8-0.6-3.9-0.8c-0.4,0.2-0.8-0.2-1.2,0c0.4,0.8,1.4,1.2,2.2,1.6c1.2,0.6,2.8,0,3.7,0.8c-0.4,0.4-0.8,0.4-1,0.8
	c-2.4,1-4.3,3-6.9,3c-2.8,0.4-5.5-0.6-7.3-2.4c-0.8-2-2.8-3-4.9-3c-0.2,0.2-0.4,0.2-0.4,0.4c1.2,0.6,2,2,3,2.8c0.8,0.8,2,0,2.8,1
	c1,0.6,2.2,1.2,3.2,1.4c0.8,0.4,1.8,0.6,2.6,0.8l-0.4,0.2c-4.5,1.6-9.9,1.6-14.8,1.4c-1.6,0-3-0.4-4.3-0.4c0.2,0.4,0.8,0.6,1.2,0.8
	c-0.4,0.2-0.8,0.4-1.4,0.4c-0.6,0.2-1.4,0.2-2,0.6c-0.8,0-1.6,0.2-2.2,0.4c-0.8,1-1.8,1.8-2.8,2.4c0,0.2,0,0.6,0.2,0.6
	c1-0.4,2.2-0.2,3.2-0.6c1.6-0.2,2.6-2,3.9-2.8c1.4-1.2,3.3-0.8,5.1-0.6c1,0.2-0.2,0.6,0.2,1.4c0.4,0.4,0.8,0.8,1.4,0.6
	c0.2-0.2,0.2-0.2,0.4-0.2c0.4-0.4,0.2-0.8,0-1.2c0.8-0.4,1.6,0,2.4-0.2c2,0,3.7-0.4,5.7-0.6c0.4,0,0.6-0.4,1,0
	c-0.2,0.4-0.6,0.4-0.4,1c0.2,0.4,0.6,0.6,1,0.8c0.4-0.2,1-0.6,0.8-1.2c-0.2-0.4-0.4-0.4-0.8-0.6c1-0.6,2.2-0.6,3.3-1.2
	c0.8-0.2,1.4-0.4,2.2-0.8c0.6,0,1.2-0.6,1.8-0.4c-0.2,0.8-0.6,1.6-1,2.4c-0.8,2.6-1.4,6.1,0,8.7c0.2,0,0.2,0,0.4-0.2
	c-1-2.6-0.4-5.7,0.4-8.3c0.8-4.3,5.1-5.5,8.3-7.1l0.2,0.2c-0.8,2.2-2.2,4.3-2,6.9c0.2,0.4-0.2,1,0,1.2c0.8-0.4,1.4-1.4,1.8-2.4
	c0.4-2.2-1-5.1,1.4-6.7c4.1-1.6,7.9-3.7,12.6-3.7c0.2,0.2,0.4-0.2,0.6,0.2c-1,1.2-2.4,2.2-3,3.5c-1.6,2.2-1.6,5.9-0.8,8.7
	c0.4,1.6-1,2.4-1.6,3.5c-0.4,0.4-0.4,1.2-0.6,1.6l1,0.2c0.8-1,1.6-2,1.8-3.3c0.2,0.6,0.6,1,1,1c0.4-0.6-0.4-1-0.4-1.6
	c0.8-0.4,1.2,0.6,1.8,0.8c1,0.2,2,0.8,3,0.8l0.4-0.4c-1.2-1.8-3.3-2-5.1-2.2c-1-1.6-1-3.7-1-5.7c0.2-1,0.4-2.2,1-3.2
	c0.2-0.8,1-1.4,1.4-2c1-0.8,2-1.4,3.2-1.8h0.2v0.2c-1.4,1-1.6,2.6-2.4,3.7c-0.8,1.2-1.2,3-0.4,4.3c0.4,0.6,0.2,1.6,0.8,2.2
	c0.6-1,0.8-2,1-3.2c-0.2-1.6-1.2-3.2-0.2-4.7c0.4-1.2,1.6-1.8,2.8-2.2c2.8-0.2,5.1,1.2,7.5,2.2c0.4,0.4,1.4,0.6,1.4,1.4
	c0,1.4-0.8,2.8-1.8,3.3c-1.4,0.8-3.3,1-4.5,0c-0.8-0.8-1-2-0.8-3.2c0.6-0.6,1.4-1.2,2.2-0.8c0.6,0.2,1,0.8,1.6,0.4
	c0.2-0.2,0.4-0.6,0.2-0.8c-0.6-0.4-0.8-1-1.6-1.2c-1-0.2-2.2-0.2-2.8,0.6c-1,1-1.4,2.4-1.2,3.5c0.4,1.6,1.6,2.8,3.2,3.2
	c2.4,0.6,4.7-0.2,6.1-2.2c0.6-0.6,0.8-1.4,1.2-2.2c2.4,1.4,4.1,3.9,5.1,6.7c0,0.8,0.2,1.8,0,2.6l1.8,0.2c-0.2-0.4,0-0.8,0.2-1.2
	c0.6-3.3,2.8-6.1,5.1-8.3c0.8-0.6,0.6,0.6,0.8,1c0.8,2,2.6,3.3,4.3,3.7c2.2,0.4,4.1-0.2,5.3-1.8c0.6-1.2,1.4-3,0.4-4.1
	c-0.8-0.8-1.6-1.4-2.8-1.4c-1.4,0-2.2,1-2.8,1.8c0,0.4,0,0.8,0.4,1c0.2,0,0.6,0,0.8-0.2c0.2-0.8,0.8-1.2,1.4-1.6
	c0.6-0.4,1.2,0,1.6,0.4c0.6,0.4,0.6,1.2,0.8,2c-0.2,1-0.8,2-1.6,2.4c-1.4,0.8-3.5,0.4-4.7-0.4c-0.6-0.6-1-1.4-1.4-2.2
	c-0.2-0.8-0.4-1.6,0-2.4c2.2-1.4,4.5-2.2,7.1-2.6c1,0.2,2,1,2.6,1.6c2.4,2.4-0.4,5.7,1.2,8.3c0.6-0.2,0.6-1,0.8-1.4
	c0.8-1.8-0.2-3.7-0.6-5.5c-0.6-1.2-1-2-2-3c0.2-0.2,0.4-0.2,0.6-0.2c1,0.8,2.2,1.6,3,2.6c1.4,2.4,2.2,5.1,2,8.3
	c-0.4,1.6-2,2.2-3.2,2.8c-0.4,0.4-1.2,1-1.4,1.6c0.6,0.4,1.4,0,2-0.2c1-0.4,1.6-1.6,2.2-2.2c0.2,0,0,0.2,0.2,0.4
	c0,0.6-0.2,1.4,0.2,1.4c0.2-0.8,0.4-1.8,0.4-2.6c0.6,0.8,0.8,1.6,1,2.6c0.4,1,1.2,2.2,2.4,2.2c0.4-0.4,0-1-0.2-1.4
	c-0.2-1.2-1.2-2-2-2.8c-1.8-2.4-1-6.1-2.4-8.9c-0.4-1.4-1.6-2.6-2.8-3.7l0.2-0.2c2.4,0,4.5,0.8,6.7,1.2c2.8,1.4,6.7,1,8.1,4.5
	c0.6,2,1.4,3.9,2.8,5.3l0.2-0.2c0.4-0.4,0.4-1.4,0-1.8c-0.4-2.6-2.6-3.2-3.5-5.1l0.2-0.2c1.2,0.4,2.4,0.6,3.5,1.2
	c3.9,1.2,6.7,4.9,7.3,9.1c0,3.2-0.6,5.9-1.8,8.7c-0.2,0.4-0.8,0.8-0.4,1.2c0.6-0.4,0.6-1,1-1.6c1.6-2.8,2.6-6.5,1.6-10
	c0-0.6-0.8-1.2-0.4-1.8c0.2,0.4,0.6,0.4,0.8,0.4c0.4-0.2,0.8-0.2,1-0.6c0-0.4,0.2-0.6,0-1c-0.4-0.4-1-0.4-1.4-0.4
	c-0.2,0.4-0.6,0.8-0.6,1.2c-0.4-0.8-1-2-1.8-2.6l0.2-0.2c2.2,0.8,4.3,1.8,6.5,2.4c0.4,0.4,1,0.6,1.8,0.6c2,0.8,4.1,1,6.1,1.6
	c1.6-0.2,2.8,0.6,4.1,0.2v-0.2c-0.6-0.8-1.8,0-2.4-0.6c-3.3-0.4-6.7-1.2-9.9-2.4c0-0.2,0.2-0.2,0.4-0.2c0.4-0.2,0.8-0.8,0.8-1.2
	c-0.2-0.4-0.6-0.6-1.2-0.6c-0.4,0.2-0.8,0.4-0.8,0.8s0.4,0.8,0.8,1c-0.2,0.2-0.4,0-0.4,0c-1.6-0.8-3-1.4-4.5-2
	c-0.6-0.2-1-0.6-1.6-0.6c-1.2-0.6-2.4-1.2-3.3-1.6c-3.2-1.6-6.7-2.6-10-3.7c-0.8-0.2-1.4-0.4-2.2-0.6c-1.2-0.4-2.6-0.6-3.7-1
	c-4.1-1-9.9-1.2-13.6,1.2c-0.6-0.2-1,0.8-1.2,0.2c1-2.8,4.1-3.7,6.9-3.7c19.9-0.2,38.6-0.4,58.3-0.6c2.4,0,4.5-0.8,5.7-3
	C241.2,71.1,241.4,68.9,240.8,67.7L240.8,67.7z M161.6,86.1c-0.2,0.6-0.6,1.2-0.6,1.8l-0.2,0.2c0.2-0.8-0.6-1.2-0.4-2
	c-0.4-0.6-0.4-1.4-0.8-2c-0.4-0.8,0.4-1.2,0.8-1.8c0.8,0.4,1,1,1.4,1.6C162.2,84.7,161.6,85.3,161.6,86.1z"/>
<path class="st0" d="M215.6,82.9c0,0.2,0.4,0.2,0.2,0.4c-1.8,1.6-4.1,2-6.7,2.2c-0.2,0-0.4,0.2-0.6,0.2c-0.2-0.2-0.2-0.2-0.2-0.4
	C210.1,83.3,212.8,82.3,215.6,82.9z M207.5,83.9c0.2,0.8-0.2,1.2-0.8,1.4c-0.6,0-0.8-0.4-1.2-0.8c-0.2-0.4,0.2-0.6,0.4-0.8
	C206.3,83.1,207.3,83.1,207.5,83.9z M112.9,83.9c0.2,0.4,0,0.8-0.2,1s-0.6,0.4-1,0.2c-0.4,0-0.6-0.4-0.6-0.8s0.2-0.8,0.6-1
	C112.1,83.5,112.5,83.5,112.9,83.9z M104.1,87.2v0.4c-1.2,0.2-2.4,0-3.2-0.8c-0.8-1-1.6-2-2.6-2.6c0-0.2-0.4-0.4,0-0.4
	C100.7,83.9,102.1,85.9,104.1,87.2z M223.1,83.9c-1.2,1.8-2.2,3.7-4.1,4.5c-0.4,0-0.6,0.6-1,0.2c0.8-2,2.6-3.9,4.3-4.7
	C222.7,83.9,222.9,83.7,223.1,83.9z M115.9,84.5c0,0.6-0.4,0.6-0.8,1c-0.4,0-0.6-0.2-0.8-0.6c-0.2-0.6,0.2-0.8,0.6-1
	C115.1,83.9,115.7,84.1,115.9,84.5z M229.4,84.7c-0.4,0.6-0.2,1.6-0.8,2.4c-1,1.2-1.8,2.4-3.3,2.8c-0.2-0.4,0.4-1,0.6-1.4
	c0.8-1.6,1.8-3.2,3.3-3.9L229.4,84.7z M88.5,85.3c0.2,0.4,0.4,0.8,0,1.2c-0.2,0.2-0.8,0.4-1.2,0.2c-0.4-0.2-0.6-0.8-0.4-1.2
	C87.3,84.9,88.3,84.7,88.5,85.3z M85.7,85.9c0,0.2,0.2,0.4,0.2,0.8c-0.2,0.2-0.4,0.6-0.8,0.6c-0.6,0.2-1-0.2-1.2-0.6
	c0-0.4,0.2-0.8,0.4-1C85,85.3,85.5,85.5,85.7,85.9z M91.7,86.1c0.2,0.4,0.2,1.2-0.4,1.2c-0.8,0.4-1.2-0.2-1.6-0.6
	c0-0.4,0.2-0.8,0.6-1C90.9,85.7,91.3,85.7,91.7,86.1z M99.7,86.8c0,0.4,0,0.8-0.4,1c-0.2,0.2-0.8,0.2-1,0.2c-0.2-0.4-0.6-0.6-0.4-1
	c0.2-0.2,0.4-0.4,0.8-0.6C99.1,86.4,99.5,86.3,99.7,86.8z M234.3,87c-0.2,0.4-0.4,0.8-0.8,0.8s-1-0.2-1.2-0.6
	c-0.2-0.6,0.2-0.8,0.6-1C233.5,86.3,234.1,86.6,234.3,87z M225,87.4c0,0.4-0.4,0.8-0.6,0.8c-0.8,0.4-1.4-0.2-1.6-0.8
	c0.2-0.4,0.4-0.8,0.8-1C224.4,86.4,224.8,86.8,225,87.4L225,87.4z M231.3,87.2c0,0.4-0.2,0.8-0.4,0.8c-0.4,0.2-1,0.2-1.2-0.2
	c-0.4-0.4-0.2-0.8,0.2-1C230.4,86.6,231.1,86.6,231.3,87.2z M87.3,88c0.2,0.6-0.2,1-0.6,1.2c-0.4,0-1-0.2-1.2-0.8c0-0.4,0.2-1,0.4-1
	C86.5,87.4,86.9,87.8,87.3,88z M222.7,88.6c0.2,0.6-0.2,1-0.8,1.4c-0.4,0.2-0.6-0.2-1-0.4c-0.2-0.2-0.4-0.8,0-1
	C221.3,87.8,222.3,88,222.7,88.6z M114.1,89.2c0.2,0.6-0.4,0.6-0.6,1c-0.2,0.2-0.6,0.2-0.8,0c-0.2-0.4-0.6-0.6-0.4-1
	c0.2-0.2,0.4-0.4,0.6-0.4C113.5,88.4,113.7,88.8,114.1,89.2z M233.3,89.6c0.2,0.4-0.2,0.6-0.2,0.8c-0.4,0.2-0.8,0.4-1.2,0.2
	c-0.4-0.2-0.4-0.6-0.4-1.2c0.2-0.2,0.4-0.4,0.8-0.6C232.5,88.8,233.1,89,233.3,89.6L233.3,89.6z M230.2,89.8c0.2,0.6-0.4,1-0.8,1
	c-0.2,0-0.4-0.2-0.6,0.2c1.4,0.6,2.2,1.8,3.2,2.6V94c-1.8,0-3.5-0.4-4.9-2c-0.4-0.2-1-0.2-1.4-0.6c0.6-0.6,1.8-0.4,2.8-0.4
	c0.6-0.8-0.8-1.2,0.2-1.8c0.4,0,0.4-0.4,1-0.2C229.8,89.2,230,89.4,230.2,89.8z M209.9,89.8c0.2,0.2-0.2,0.6-0.2,0.8
	c-0.4,0.4-0.8,0.4-1.2,0.2c-0.2-0.4-0.6-0.6-0.4-1.2C208.5,88.8,209.7,89,209.9,89.8L209.9,89.8z M98.5,91.6
	c-0.2,0.4-0.4,0.8-0.8,0.8s-0.8-0.2-1-0.6c0-0.4,0.2-0.6,0.2-0.8C97.6,90.4,98.5,90.8,98.5,91.6z M102.5,90.8c0,0.8-0.8,1.2-1,1.8
	c-0.8,1.6-2.2,3.2-3.9,3.3c-0.2-0.4,0.6-1,0.8-1.4c0.8-1.8,2.4-2.6,3.7-3.7C102.1,90.8,102.5,90.8,102.5,90.8z M208.7,91.6
	c0,0.6-0.4,1-0.8,1.2c-0.4,0.2-0.8-0.2-1-0.4c-0.4-0.4-0.2-0.8,0-1.2C207.5,90.6,208.3,91,208.7,91.6z M211.8,92c0,0.6-0.4,1-1,1.2
	c-0.2-0.2-0.4,0-0.4-0.2c-0.4-0.2-0.6-0.6-0.6-1c0.2-0.2,0.4-0.6,0.8-0.8C210.8,91.2,211.6,91.4,211.8,92z M110.4,91.8
	c0,0.6-0.4,0.8-0.8,1c-0.4,0-0.8-0.2-1-0.6s0.4-0.8,0.6-1C109.8,91.2,110,91.6,110.4,91.8z M113.7,92c-0.2,0.4-0.4,0.8-1,0.8
	c-0.4-0.2-0.8-0.2-1-0.6c0-0.6,0.4-0.8,0.8-1C113.1,91.4,113.5,91.6,113.7,92z M222.5,95.5c0.2,0.2,0.8,0.4,0.6,0.8
	c-0.8,0.4-1.4-0.6-2.2-0.8c-1.2-1.2-2.2-2.6-2.6-3.9c0.4-0.4,1,0.2,1.4,0.2C220.7,93,221.9,94.1,222.5,95.5z M224.2,92
	c0.2,0.4,0.2,0.8-0.2,1.2c-0.4,0.6-1,0.4-1.4,0.4c-0.2-0.4-0.8-0.8-0.4-1.2c0.2-0.4,0.6-0.6,1-0.6C223.7,91.6,223.9,92,224.2,92
	L224.2,92z M118.3,93.3c0,0.4,0.2,1-0.4,1.2c-0.4,0.2-1,0-1.2-0.6s0.2-0.8,0.6-1C117.7,93,118.1,93.1,118.3,93.3z M211.6,96.7
	c0.8,1,1.2,2.2,1.4,3.5c-0.2,0.4,0.2,0.8,0,1h-0.4c-2.2-1.6-2.8-3.9-3.5-6.1c-0.2-0.2-0.2-0.4-0.2-0.6c0.4-0.4,0.8,0.4,1.4,0.6
	L211.6,96.7z M124.8,94.9C124.8,94.9,124.8,95.1,124.8,94.9c-2,1.6-4.7,2.4-7.1,1c0-0.2,0-0.4,0.2-0.4c1.4-0.4,2.8-1.2,4.3-1
	L124.8,94.9z M113.3,95.1c-1.8,1-3.2,3.2-5.3,3.5c-0.4,0.2-0.6,0.8-1.2,0.4c1-2.8,3.7-4.1,6.5-4.3V95.1z M208.7,97.5
	c0.2,0.4,0,1-0.4,1c-0.2,0.2-0.8,0.2-1,0c-0.4-0.2-0.4-0.6-0.4-1c0.2-0.4,0.4-0.4,0.8-0.6C208.1,97.1,208.5,97.1,208.7,97.5
	L208.7,97.5z M204.5,97.7c-0.4,0.8-1.2,1.2-1.8,1.4c-1.8,0.6-3.2-0.2-4.7-0.6c0-0.4,0.6-0.2,0.8-0.4c1.6-0.4,3.3-0.8,5.1-0.2
	C204,97.5,204.3,97.5,204.5,97.7L204.5,97.7z M113.3,99.1c-0.2,0.2-0.2,0.6-0.6,0.8c-0.4,0.2-0.8,0-1-0.2c-0.2-0.4-0.4-0.6-0.2-1
	s0.4-0.4,0.8-0.6C112.9,98.3,113.3,98.7,113.3,99.1z M116.3,99.6c-0.2,0.4-0.4,0.8-0.8,1s-0.8-0.2-1-0.4c-0.2-0.4-0.4-0.6-0.2-1
	c0.2-0.2,0.4-0.4,0.8-0.4C115.7,98.7,116.1,99.3,116.3,99.6z M207.7,100c0,0.4-0.2,0.6-0.4,1s-0.8,0.4-1.2,0.2
	c-0.4,0-0.4-0.4-0.6-0.8c-0.4-0.4,0.2-0.6,0.4-1C206.5,99.1,207.5,99.3,207.7,100z M209.9,100c0,0.2,0.2,0.4,0.2,0.8
	c-0.4,0.2-0.4,1-1.2,0.6c-0.2,0.2-0.4-0.4-0.6-0.4c-0.2-0.6,0-1.2,0.6-1.4C209.3,99.5,209.7,99.8,209.9,100z M114.5,101.4
	c0.2,0.6-0.2,1-0.4,1.4c-0.6,0.2-1.2,0.2-1.4-0.6c0-0.4,0-1.2,0.6-1.4C113.7,100.8,114.3,100.8,114.5,101.4z M117.5,101.2
	c-0.2,1.4-0.4,3.2-1.8,3.9c-0.8,0.2-1.6,1-2.4,0.4v-0.2C114.3,103.8,116.1,102.6,117.5,101.2z M199.8,102.4c0.2,0.4-0.2,0.6-0.2,0.8
	c-0.2,0.4-0.8,0.2-1.2,0s-0.4-0.6-0.2-1s0.4-0.4,0.6-0.6C199.2,101.6,199.6,102,199.8,102.4L199.8,102.4z M122.4,104.8
	c0.8,1.2,0.4,2.8,0.8,3.9c-0.8,0.2-1.2-0.8-1.8-1.4c-1.2-1.6-1-3.5-1.4-5.3c0.2-0.2,0.2-0.2,0.4-0.2c0.8,0.4,1.4,1.4,2,2.2
	C122,104.4,122.4,104.4,122.4,104.8z M202.4,102.8c0,0.4-0.4,0.6-0.8,0.8c-0.4,0-0.6-0.2-1-0.4c-0.2-0.4,0.2-0.6,0.4-1
	C201.8,102,202.2,102.2,202.4,102.8L202.4,102.8z M208.3,107.3c0,0.2,0,0.4-0.4,0.4h-0.2c-1.4-1.4-3-2.8-2.8-4.7h0.4
	C206.7,104,208.3,105.2,208.3,107.3z M204.5,105.6c0,0.4-0.2,0.8-0.4,1c-0.6,0.2-1.4,0.2-1.6-0.6c0-0.6,0.6-0.8,0.8-1
	C204,104.8,204.3,105.2,204.5,105.6z M201.2,106.7c-0.8,1.8-2.6,2.8-3.9,4.1c-0.2-0.2-0.2-0.6-0.2-0.8c0.4-2,2-3.7,3.7-4.5
	C202,105.8,201.2,106.3,201.2,106.7z M204.9,108.1c0,0.4-0.4,0.6-0.8,1c-0.4,0-0.8-0.2-1.2-0.6c0-0.6,0.4-0.6,0.6-1
	C204.3,107.5,204.7,107.7,204.9,108.1z M167.9,17.1c0.6,0,1.2,0.6,1.2,1.2s-0.6,1.2-1.2,1.2h-14.8c-0.6,0-1.2-0.6-1.2-1.2
	s0.6-1.2,1.2-1.2H167.9z M157.5,19.3c1.4,0,0-1.8-0.8-1.8h-1.2c-1.4,0,0,1.8,0.8,1.8H157.5z M163.6,19.3c1.4,0,0-1.8-0.8-1.8h-1.4
	c-1.4,0,0,1.8,0.8,1.8H163.6z M168.1,17.5h-0.6c-1.4,0-0.2,1.8,0.6,1.8C169.1,19.3,169.1,17.5,168.1,17.5z M166.7,34l2.8,1l2.8-1
	l-1.2,4.1l2.2-0.4l-0.9,2.6l0.8,2.4l-2-0.6l0.8,4.5l-2.8-1l-2.8,1l1.2-4.5l-2.2,0.6l0.6-2.6l-0.5-2.3l2.2,0.4L166.7,34L166.7,34z
	 M170.9,41.5c0.6,0,0.8-0.8,0.8-1.6c0-1.8-1.4,0-2-1.6c-0.6,1.4-2,0.2-2,1.6c0,1,0,1.6,1,1.6H170.9z M168.1,40.2
	c0,0.6,0.8,0.2,1.6,0.2c0.6,0,1.6,0.4,1.6-0.2c0-1-0.8-0.6-1.6-0.6C168.9,39.4,168.1,39.2,168.1,40.2z M160,40.2v-0.4l-0.4-0.2
	l0.4-0.4l-0.2-0.4h0.4l0.4-0.4l0.2,0.4h0.4l-0.2,0.4l0.4,0.4l-0.4,0.2v0.4l-0.4-0.2L160,40.2z M157.9,43.1v-0.6l-0.4-0.2l0.4-0.2
	l-0.2-0.6l0.3,0.2l0.2-0.6l0.4,0.6l0.4-0.2l-0.2,0.6l0.4,0.2l-0.4,0.2v0.6l-0.6-0.4L157.9,43.1z M161.6,42.7v-0.6h-0.4l0.4-0.4
	l-0.4-0.4h0.6l0.2-0.6l0.4,0.6h0.4l-0.2,0.4l0.4,0.4h-0.4v0.6l-0.6-0.4L161.6,42.7z M162,44.9v-0.4h-0.2l0.2-0.2l-0.2-0.4l0.4,0.2
	l0.2-0.4v0.4l0.4-0.2l-0.2,0.4l0.2,0.2h-0.2v0.4l-0.2-0.2L162,44.9z M158.6,47.2v-0.9l-0.7-0.2l0.5-0.6l-0.4-0.8l0.8,0.2l0.6-1
	l0.4,1l0.8-0.2l-0.4,0.8l0.8,0.6l-0.8,0.2v0.9l-0.8-0.5L158.6,47.2z M160.4,0l1.8,4.3l4.3-1.4l-2.1,4.2l3.7,2.5l-4.5,0.8l0.2,4.7
	l-3.4-3.1l-3.5,3.1l0.4-4.7l-4.8-0.8l4-2.5l-2.4-4.2l4.5,1.4L160.4,0z M144.3,96.5c-0.6,0.2-0.8,0.4-0.6,1l0.6,2.6
	c0.2,0.4,0.2,1.2-0.2,1.8s-1.2,1-1.8,1c-0.4,0.2-1.4,0.2-2.2,0c-0.4-0.2-0.8-0.4-1-1.4l-0.6-2.8c-0.2-0.8-0.4-0.6-1-0.6v-0.2
	l3.3-0.8v0.2c-0.6,0.2-1,0.2-0.8,1l0.6,2.8c0.2,0.4,0.4,1.6,1.8,1.2c1.8-0.4,1.4-1.8,1.4-2.2l-0.6-2.6c-0.2-0.6-0.4-0.8-1.2-0.6
	v-0.2l2.2-0.6C144.2,96.1,144.3,96.5,144.3,96.5z M149.2,97.1c-0.4-0.6-1.2-1.4-2.4-1.2c-0.6,0.2-1,0.4-0.8,1
	c0.2,0.4,0.4,0.6,1.2,0.8l1.6,0.2c0.4,0,1.2,0.4,1.4,1.4c0.2,0.8-0.2,2-2.2,2.4c-1,0.2-1.4,0-1.8,0.2c-0.2,0-0.2,0.2-0.2,0.4h-0.2
	l-0.4-2h0.2c0.4,0.8,1.2,1.6,2.4,1.4s1-1.2,1-1.2c-0.2-0.6-0.6-0.6-1.4-0.8l-0.8-0.2c-1.8-0.4-2-1-2.2-1.4c-0.2-0.6,0-1.8,1.8-2.2
	c0.8-0.2,1.4,0,1.6,0s0.2-0.2,0.2-0.4h0.4l0.4,1.8L149.2,97.1L149.2,97.1z M155.9,100.4l-3.5,0.4v-0.2c0.8-0.2,1-0.2,1-0.8l-0.4-4.5
	c-0.8,0.2-1.8,0.2-1.8,1.6H151l-0.2-1.8l6.1-0.6l0.2,1.8h-0.2c-0.4-1.4-1.4-1.4-2.2-1.2l0.4,4.5c0,0.8,0.4,0.8,1,0.8L155.9,100.4
	L155.9,100.4z M164.2,100.4H162l-2-2.8h-0.2v1.6c0,0.6,0.2,0.8,0.8,0.8v0.2h-3.3V100c0.8,0,1,0,1-0.8v-3.7c0-0.8-0.4-0.8-0.8-0.8
	v-0.2h3.3c0.8,0,3,0.2,2.8,1.6c0,1-1,1.4-1.6,1.4l2,2.6c0.2,0.2,0.2,0.2,0.4,0.2L164.2,100.4L164.2,100.4z M159.8,97.5
	c1.4,0,1.8-0.2,2-1.2c0-0.8-0.4-1.2-1.2-1.2c-0.6,0-0.6,0-0.6,0.4C160,95.5,159.8,97.5,159.8,97.5z"/>
<path class="st0" d="M170.9,101.2l-3.3-0.4v-0.2c0.6,0,0.8,0,0.8-0.2s-0.2-1-0.4-1.2l-2.4-0.2c-0.4,0.6-0.6,1-0.6,1
	c0,0.4,0.4,0.4,0.8,0.4v0.2l-2-0.2v-0.2c0.6,0,0.8-0.2,1.2-0.8l2.8-4.3h0.2l1.8,4.7C170.3,100.8,170.5,101,170.9,101.2L170.9,101.2z
	 M168.1,98.9l-0.8-2.2l-1.2,2L168.1,98.9z M176.8,102.4l-5.7-1v-0.2c0.6,0,0.8,0,1-0.4l0.8-4.1c0.2-0.6-0.4-0.6-0.8-0.8v-0.2
	l3.5,0.6v0.2c-0.8-0.2-1-0.2-1.2,0.6l-0.8,3.9c0,0.4,0.2,0.6,0.8,0.6c1.6,0.2,2.2-0.4,2.8-1.2h0.2L176.8,102.4z M180.7,103.4
	l-3.5-0.8v-0.2c0.6,0,1,0.2,1-0.4l0.8-4.1c0.2-0.6-0.4-0.6-0.8-0.8v-0.2l3.5,0.8v0.2c-0.4,0-1-0.2-1,0.4l-0.8,4.1
	C179.7,103,180.1,103,180.7,103.4z"/>
<path class="st0" d="M187.8,104.2l-3.4-0.4v-0.2c0.6,0,0.8,0,0.8-0.2s-0.2-1-0.4-1.2l-2.4-0.2c-0.4,0.6-0.6,1-0.6,1
	c0,0.4,0.4,0.4,0.8,0.4v0.2l-2-0.2v-0.2c0.6,0,0.8-0.2,1-1l2.8-4.3h0.2l1.8,4.7c0.4,1,0.4,1.2,1,1.4L187.8,104.2L187.8,104.2z
	 M184.8,102l-0.8-2.2l-1.2,2L184.8,102z M161.8,35.4c0-2-1.2-0.2-1.8-1.8c-0.4,1.4-1.8,0.2-1.8,1.8c0,0.6,0.2,1,0.4,1.2v0.6
	c0,0.2,0.2,0.2,0.2,0.2h2.2c0.2,0,0.2-0.2,0.2-0.2v-0.6C161.6,36.4,161.8,36,161.8,35.4L161.8,35.4z M160,35.8
	c-0.6,0-1.4,0.4-1.4-0.2c0-1,0.6-0.8,1.4-0.8c0.6,0,1.6-0.2,1.6,0.8C161.4,36.2,160.6,35.8,160,35.8z M179.5,60.6c0.6,0,1-0.4,1-0.8
	s-0.4-0.8-1-0.8s-1,0.4-1,0.8S179.1,60.6,179.5,60.6z M175.2,30.3l-0.4,0.8c0,0.2,0.2,0.4,0.4,0.4s0.4-0.2,0.4-0.4L175.2,30.3z
	 M145,30.3l-0.4,0.8c0,0.2,0.2,0.4,0.4,0.4s0.4-0.2,0.4-0.4L145,30.3z M152.5,30.3l-0.4,0.8c0,0.2,0.2,0.4,0.4,0.4s0.4-0.2,0.4-0.4
	C153.1,31.1,152.5,30.3,152.5,30.3z M160,30.3l-0.4,0.8c0,0.2,0.2,0.4,0.4,0.4s0.4-0.2,0.4-0.4C160.6,31.1,160,30.3,160,30.3z
	 M167.7,30.3l-0.4,0.8c0,0.2,0.2,0.4,0.4,0.4s0.4-0.2,0.4-0.4L167.7,30.3z M145,40.5l0.4,0.8c0,0.2-0.2,0.4-0.4,0.4
	s-0.4-0.2-0.4-0.4C144.7,41.5,145,40.5,145,40.5z M145,50.6l0.4,0.8c0,0.2-0.2,0.4-0.4,0.4s-0.4-0.2-0.4-0.4
	C144.7,51.6,145,50.6,145,50.6z M146.2,58.5l0.4,0.8c0,0.2-0.2,0.4-0.4,0.4s-0.4-0.2-0.4-0.4C145.8,59.5,146.2,58.5,146.2,58.5z
	 M152.5,62.8l0.4,0.8c0,0.2-0.2,0.4-0.4,0.4s-0.4-0.2-0.4-0.4L152.5,62.8z M175.6,40.5l-0.4,0.8c0,0.2,0.2,0.4,0.4,0.4
	s0.4-0.2,0.4-0.4C176,41.5,175.6,40.5,175.6,40.5z M175.6,50.6l-0.4,0.8c0,0.2,0.2,0.4,0.4,0.4s0.4-0.2,0.4-0.4
	C176,51.6,175.6,50.6,175.6,50.6z M174.4,58.5l-0.4,0.8c0,0.2,0.2,0.4,0.4,0.4s0.4-0.2,0.4-0.4C174.8,59.5,174.4,58.5,174.4,58.5z
	 M168.1,62.8l-0.4,0.8c0,0.2,0.2,0.4,0.4,0.4s0.4-0.2,0.4-0.4L168.1,62.8z M160.4,67.3l-0.4,0.8c0,0.2,0.2,0.4,0.4,0.4
	s0.4-0.2,0.4-0.4L160.4,67.3z M172.6,52.4c0.2,0.2,0.4,0.2,0.6,0l0.2-0.8c0,0-0.4-0.4-0.6-0.4c-0.8,0.2-1.6,0.2-2.2,1
	c0,0.6,0.4,1,0.8,1.2c0.2-0.2,0.4,0.2,0.6,0.4c0,0.2-0.2,0.4-0.4,0.4c-0.6-0.6-1.6,0.2-2-0.6c0.2-0.8,0.6-1.6,0-2.2
	c0-0.2,0.2-0.2,0.2-0.4c-0.2-0.6-1-0.2-1.4-0.2c-0.8-0.2-1.4,0.2-1.8,0.8c0,0.2,0.2,0.4,0.4,0.8c0.2,0,0.2,0,0.4,0.2l-0.3,0.2
	c0.2,0.2,0.2,0.4,0.2,0.6c-0.4,0.2-0.6-0.4-0.8-0.6c0-0.4,0-1-0.4-1.2c-0.2,0-0.4,0.2-0.4,0.2c-0.2,0.2-0.2,0.4-0.2,0.8
	s0.2,0.8,0.2,0.8s1.4,1,1.8,1.8c-0.4,0.8-0.4,2-1.4,2.6c-0.2,0.2-0.2,0.4-0.2,0.8l0.2,0.2c0.6-0.4,1.8-0.4,1.8-1.4
	c0.2-0.4,0.4-1,1-1.2c0.4-0.2,1,0.2,1,0.6c-0.2,0.8-0.6,1.2-1.2,1.4v0.4c0.2,0.4,0.8,0.2,1,0.2c0.8-0.6,1.2-1.4,1.8-1.8
	c0.2,0.4-1,0.6-0.2,1.2c0.4-0.2,1,0,1.4-0.6c-0.4-0.8,1.2-1.2,0.2-2c0-0.8,0.8-1,0.8-1.8c-0.2-0.8-1.2-0.8-1.4-1.4
	C171.8,52.2,172.2,52.2,172.6,52.4L172.6,52.4z M138,61c0.6,0,1-0.4,1-0.8s-0.4-0.8-1-0.8s-1,0.4-1,0.8C137.2,60.6,137.6,61,138,61z
	 M89.3,89.4c0.6,0,1-0.4,1-0.8s-0.4-0.8-1-0.8s-1,0.4-1,0.8S88.7,89.4,89.3,89.4z M120.2,96.3C120,96.1,120,96.1,120.2,96.3z
	 M120.4,96.3C120.4,96.3,120.2,96.3,120.4,96.3C120.2,96.3,120.4,96.3,120.4,96.3C120.2,96.3,120.2,96.3,120.4,96.3
	C120.2,96.3,120.2,96.3,120.4,96.3z M120.8,96.3C120.6,96.3,120.6,96.3,120.8,96.3C120.6,96.3,120.6,96.3,120.8,96.3
	C120.6,96.3,120.6,96.3,120.8,96.3z M120.8,96.3C120.8,96.3,120.8,96.1,120.8,96.3z M121,96.3C121,96.3,120.8,96.3,121,96.3
	C120.8,96.3,120.8,96.3,121,96.3z"/>
<path class="st0" d="M177.7,29.1h-34.6v26.6c0,2.8,1.2,5.1,2.8,5.7l13.4,8.5c0.2,0.4,0.8,0.6,1.2,0.6s0.8-0.2,1-0.4l13.6-8.7
	c1.6-0.8,2.8-3.2,2.8-5.7V29.1H177.7L177.7,29.1z M176.8,55.9c-0.2,2-0.8,3.7-2.2,4.5l-13,8.3c-0.2,0.2-0.6,0.4-1,0.4
	s-0.8-0.2-1-0.4l-13-8.3c-1.4-1-2-2.6-2.2-4.5V30.1h32.7L176.8,55.9z"/>
<path class="st0" d="M164.9,67.7l0.4-0.2C165.1,67.5,165.1,67.7,164.9,67.7z M138.7,104l-3.3,0.4v-0.2c0.6-0.2,0.8-0.2,0.8-0.4
	s-0.4-0.8-0.6-1l-2.4,0.2c-0.2,0.6-0.4,1-0.4,1.2c0,0.4,0.6,0.2,0.8,0.2v0.2l-2,0.2v-0.2c0.6-0.2,0.6-0.4,0.8-1.2l1.8-4.9h0.2
	l2.8,4.1c0.6,0.8,0.8,1.2,1.2,1L138.7,104L138.7,104z M135.6,102.4l-1.2-2l-0.8,2.2L135.6,102.4z"/>
<path class="st0" d="M196.3,91.6c-0.6-1.6-1.8-2.6-3.3-3.2c-1.6-0.4-3.3-0.2-4.3,1.2c-1.8,1.4-0.6,3.9-0.4,5.9c0,0.4,0,0.8-0.4,1
	c-7.3-0.6-14-2.4-21.1-3.2c-1.6-0.2-3.3-0.2-4.9-0.6l-2-0.2c-6.3,0.2-12.4,0.6-18.3,2c-1.2,0.4-2.6,0.4-3.9,1
	c-1-0.2-1.6,0.4-2.6,0.2l-1.7,0.4h-0.6c-0.8-2,1.6-3.3,0.8-5.3c-0.6-1.2-2-2.2-3.3-2c-1.8-0.2-3.2,0.8-3.9,2
	c-1.2,2.6,0.4,5.1,0.8,7.5c-0.2,0.8,0.8,1.8,0,2.4c-1.6-1.2-3.7-1.8-5.7-1.2c-0.6,0.4-1.8-0.2-2,0.6c2.2,1.2,4.9,1,7.3,1
	c0.4-0.2,0.6-0.2,0.8,0c0.2,1.4-0.2,3.2,0.6,4.1c1,1.2,2.4,1.6,3.7,1.6c4.5-0.2,8.7-1.6,12.8-2.6c0.6,0,1.2-0.4,1.8-0.4
	c2.2-0.6,4.7-1,7.1-1c-1,1.4-1.6,3-2.2,4.5c-0.6,1.4,1,1.6,1.6,2.4c-1.6,0.4-2.6,1.6-4.1,2.2c-3.2-0.2-5.9,1.2-8.9,1.4
	c0,0.6,1,0.4,1.2,1.2c-0.2,0.4-0.6,0.6-1,0.8c0,0.4,0,0.4,0.4,0.4c0.4-0.4,1-0.2,1.2-0.4c1,0,1.8-0.4,2.8-0.4c0.8-0.4,1.8-0.4,2.6-1
	c1-0.4,1.8-1,2.8-1.4c1.6,0,2.8-0.6,4.1-0.6v0.4c-1.2,1.8-2.4,3.7-3.5,5.5c-0.2,0.4,0,0.8,0.4,0.8c0.8,0.2,1.4,0,2-0.4
	c1-1.8,2-3.5,2.8-5.3c0.4-1.8,1.6-2.6,2.8-3.7c0.2-0.2,0.4-0.4,0.8-0.2c-1,1.2-1.6,2.4-2.4,3.5c-0.4,1.4-0.6,3.2,0.8,4.3
	c0.6,0.6,1.6,0.4,2.4,0.4c2-1,4.3,0.6,5.9-1.4c1-0.2,1,1,1.6,1.4c0.8,0.2,1.8,1.2,2.6,0.4c0-0.6-0.6-1-1-1.6c-0.6-1-1.4-2-2-3
	c-0.2-0.8-0.8-1.2-0.8-1.8c1,0.4,1.8,1,2.8,1c0.8,0.4,2,0.4,2.8,0.8c0.6,0.8,1.6,1.4,2.6,2c1.2,0.6,2.6,0.8,3.9,1.2
	c0.4,0,1.2,0.4,1.6,0c-0.2-0.2-0.4-0.4-0.8-0.6c-0.2-0.6,1-0.4,1.2-0.8c-0.2-0.2-0.4-0.4-0.6-0.4c-0.8-0.4-2.6-0.6-3-0.8l-1.8-0.6
	c-3,0-4.7-2.8-7.1-3.7c0.6-0.6,1.4-1,1.8-1.6c0.4-0.8,0.6-1.8,0.2-2.6c-0.4-1.6-2.4-1.4-3.5-2.2l0.2-0.2c2-0.2,3.5,0.4,5.3,0.8
	c4.7,0.6,9.3,2.4,14.2,2.6c2.8,0,6.1,0.2,7.5-2.6c0.2-1.6,0.6-3.2,0.8-4.7C194.9,96.7,196.5,94.3,196.3,91.6L196.3,91.6z
	 M142.5,114.4l-0.8-0.6c0.4-0.4,1.2-0.2,1.6-0.6c1.4-0.4,2.8-1,4.1-0.6C146.2,113.8,144.3,114,142.5,114.4L142.5,114.4z
	 M173.6,113.6c1.2,0.6,3.5,1,5.3,1.2c-0.2,0.6-1.4,0-1.2,1c-1.6-0.6-3.3-1-4.5-2.2H173.6z M126.9,92.4c0.2-1,0.4-1.8,1.2-2.6
	c1.2-0.6,2.8-0.4,3.9,0.2c0.4,0.2,0.6,0.4,0.8,1c0.2,0.8-0.2,1.8-0.8,2.4h-0.4c0-0.8,0-1.6,0.4-2.4c0-0.6-0.6-0.6-1-1
	c-0.8-0.2-1.6,0.2-2.2,0.6c-0.4,0.6-1,1.4-0.6,2.2c0.4,0.6,0,1.4,0.2,2l-0.2,0.2C127.5,94.1,126.7,93.5,126.9,92.4L126.9,92.4z
	 M129.3,93.7c0.8,0.6,1.8,0.4,2.8,0.4c0.2,0.6,0.2,1.2-0.2,1.8c-0.8-0.2-2-0.2-2.4-1C129.3,94.7,129.1,94.1,129.3,93.7L129.3,93.7z
	 M129.1,92c0.2-0.4,0-1,0.6-1.2c0.4-0.2,1-0.2,1,0.4s-0.2,1.2-0.2,1.8C129.7,93.1,129.3,92.6,129.1,92L129.1,92z M152.3,108.1
	c-0.2-1.8,0.4-3.3,1.6-4.5c0.8-0.2,1.6-0.4,2.2,0.2c-1.4,0.4-3,0.6-3.2,2.4c0,0.6-0.2,1,0.2,1.6c0.6,1,1.8,0.6,2.6,1.4
	c0,0.2-0.2,0.6-0.4,0.6C154.3,109.1,153.1,108.7,152.3,108.1L152.3,108.1z M150.6,111.7c1.2-0.6,2.4-1.6,3.7-1.2
	C153.5,111.3,151.9,111.5,150.6,111.7z M155.3,112.1c-0.8,1.6-1.6,3.2-2.4,4.7c-0.2,0.2-0.6,0.4-0.8,0.4c0-0.8,0.8-1.2,1-1.8
	c1-1.4,1.4-2.8,2.6-4.1C155.9,111.5,155.3,111.7,155.3,112.1L155.3,112.1z M156.7,109.3C156.7,109.1,156.5,109.1,156.7,109.3z
	 M156.1,107.9l-2.4-0.6c-0.4-0.6,0-1,0-1.6c0.8-1.2,2.8-1.6,3.5-0.6C157.3,106.2,156.9,107.1,156.1,107.9z M157.3,107.9
	c0.2-0.6,0.4-1.6,0.8-2.2C158,106.3,157.7,107.3,157.3,107.9z M157.9,103.8c-0.6-0.2-1-1-1.8-1c0.6-0.2,1.2-0.2,2,0
	C158.2,103.2,157.9,103.6,157.9,103.8z M158.4,105.4v-0.6V105.4z M158.4,107.5c0-0.2,0.2-0.4,0.2-0.8c0.2-0.2,0.4,0.2,0.6,0.4
	C159,107.5,158.6,107.7,158.4,107.5z M159.2,104.6c0.2-0.8,0.2-1.4,0.8-1.8c0.4,0,1,0,1.4,0.2c0.2,1,1.4,2.4,0,3.2
	c-0.4,0.2-1.2,0.6-1.6,0.2C159,105.8,158.8,105.2,159.2,104.6L159.2,104.6z M162.8,103c-0.2-0.4,0.4-0.2,0.6-0.4l1.6,0.2
	C164.2,102.8,163.2,104.6,162.8,103L162.8,103z M165.3,103.8c-0.6,0.2-1,1-1.6,1C164,104.2,164.7,103.8,165.3,103.8z M163.4,109.9
	c0,0.2,0,0.2-0.2,0.4l-1.2-1C162.6,109.3,163,109.5,163.4,109.9z M162,108.3c0.2-0.2,0.4-0.2,0.4,0H162z M161.2,107.5
	c0.2-0.4,0.4-0.8,0.8-0.8c0,0,0,0.2,0.2,0.2C161.8,107.3,161.6,107.5,161.2,107.5z M160,107.5l0.2-0.4
	C160.4,107.3,160.2,107.3,160,107.5z M160.2,109.3c0.6-0.8,1.2,0.4,1.6,1c0.8,1.2,2.8,2.2,2,3.5c-1,0.8-2.4,0-3.5,0.8
	c-0.6,0-1.6,0.2-1.8-0.4C159,112.7,159.4,110.9,160.2,109.3z M158.8,110.3l0.2-0.4c-0.4,1.2-1,2.4-1.6,3.5
	C157.3,112.5,158.4,111.5,158.8,110.3L158.8,110.3z M161,116.4c-1,0-2.4,0.6-3.3-0.2c0-0.4-0.4-0.6-0.4-1c0.8-0.4,1.6,0.6,2.2,0
	c1.2,0,2.4-0.2,3.5,0.2c0.6,0.2,1.4-1,1.6,0.2C164.2,117,162.2,115.8,161,116.4z M164.2,112.3c0,0.6,0.6,0.8,0.2,1.2
	C164.4,113.2,164.2,112.8,164.2,112.3z M165.7,115.2l-0.2,0.2c-0.2-0.2-0.2-0.8-0.2-1C165.5,114.6,165.7,115,165.7,115.2z
	 M168.1,116.4c0,0.2-0.4,0.2-0.4,0c-1.6-2-2.2-3.9-3.2-6.1h0.2C165.9,112.5,166.9,114.6,168.1,116.4z M170.1,111.9
	C169.9,111.9,169.9,112.1,170.1,111.9c-1.6,0.2-2.6-0.6-3.7-1.4v-0.2C167.7,110.3,168.7,111.3,170.1,111.9z M168.7,105.2
	c0.6,0.2,0.6,0.8,0.8,1.4c0,1.2-0.6,2-1.8,2.4c-0.6,0.4-1.4,0.4-2,0.2c1.2,0,2.6-0.4,3-1.8V105.2z M167.5,105
	c0.2,0.8,0.8,1.4,0.4,2.2c-0.4,1-1.6,1-2.4,1.2c-0.4,0-0.8-0.2-1.2-0.4c0-0.2,0-0.4-0.2-0.4c0.2-0.6-1.2-1.4-0.2-1.8
	C164.9,105,166.7,103.2,167.5,105L167.5,105z M192.9,101.4c-0.4,0.4,0,1.4-0.6,1.8c0,1-0.8,1.4-1.4,1.8c-5.9,1.4-11.8-0.8-17.5-1.8
	c-8.1-1.8-17.3-2.2-25.6-0.4c-3.7,0.8-7.5,1.6-11.2,2.6c-2.4,0.4-4.7,0.6-6.9,0c-1.8-0.8-1-3.2-1.6-4.7c0.2-1.2-0.4-2.2-0.4-3.5
	c-0.2-0.4-0.2-1-0.2-1.4c0.8,0.2,1.6,0.6,2.4,0.8c4.1,0.8,7.9-0.6,11.8-1.2c3.7-0.8,7.5-1.4,11.4-1.8c4.5,0,9.1-0.4,13.4,0.4
	c1.4,0,2.6,0.4,3.9,0.4c2.8,0.4,5.3,1.2,8.3,1.4c0.4,0.2,1,0.2,1.6,0.2c4.5,0.8,9.5,2,13.8,0C193.9,97.9,193.1,99.6,192.9,101.4z
	 M191.5,95.3c0,0.8-0.8,0.6-1.2,1h-1.2c-0.2-0.4-0.2-1-0.2-1.4C189.8,94.9,190.8,94.9,191.5,95.3L191.5,95.3z M190.9,93.9
	c0.6-0.6-0.2-3.7,1.4-1.6c0,0.4,0,1-0.4,1.4C191.7,93.7,191.3,94.1,190.9,93.9z M194.9,93.5c-0.4,1-1.2,1.6-2.2,1.8
	c0-1.2,1.2-2,0.8-3.3c-0.6-1-2-1.2-3.2-1c-0.4,0.4-0.2,0.8-0.4,1.2l-0.2,1.6c-1,0-1-1-1.4-1.6c0-1,0.6-2.2,1.6-2.6
	c0.8-0.4,2.2-0.4,3,0.2c0.6,0.2,1.4,0.4,1.6,1C195.3,91.4,195.1,92.6,194.9,93.5L194.9,93.5z M12.9,149.3H5.5l-0.9,2
	c-0.3,0.7-0.4,1.2-0.4,1.7c0,0.6,0.2,1,0.7,1.3c0.3,0.2,1,0.3,2,0.4v0.6H0v-0.6c0.7-0.1,1.4-0.4,1.8-0.9s1.1-1.6,1.8-3.1l7.5-16.7
	h0.3l7.5,17.1c0.7,1.6,1.3,2.6,1.8,3.1c0.3,0.3,0.8,0.5,1.5,0.6v0.6H12.1v-0.6h0.4c0.8,0,1.4-0.1,1.7-0.3c0.2-0.2,0.3-0.4,0.3-0.7
	c0-0.2,0-0.4-0.1-0.6c0-0.1-0.2-0.5-0.5-1.2L12.9,149.3L12.9,149.3z M12.4,148.2L9.3,141l-3.2,7.2L12.4,148.2L12.4,148.2z
	 M37.5,140.9v11.3c0,1.1,0.1,1.8,0.3,2.1s0.6,0.4,1.2,0.5v0.6h-5.9v-1.9c-0.7,0.8-1.4,1.4-2.1,1.8c-0.7,0.4-1.5,0.6-2.3,0.6
	s-1.5-0.2-2.2-0.7c-0.6-0.5-1.1-1.1-1.3-1.7c-0.2-0.7-0.3-1.8-0.3-3.5v-5.7c0-1.1-0.1-1.8-0.3-2c-0.2-0.3-0.6-0.4-1.3-0.5v-0.6h5.9
	v9.8c0,1,0,1.7,0.1,2s0.3,0.5,0.5,0.7s0.5,0.2,0.7,0.2c0.4,0,0.7-0.1,1-0.3c0.4-0.3,0.9-0.8,1.5-1.6v-7.7c0-1.1-0.1-1.8-0.3-2
	c-0.2-0.3-0.6-0.4-1.3-0.5v-0.6h6.1V140.9L37.5,140.9z M50.2,140.5l0.2,4.9h-0.5c-0.6-1.5-1.3-2.5-1.9-3c-0.7-0.5-1.3-0.8-2-0.8
	c-0.4,0-0.8,0.1-1.1,0.4s-0.4,0.6-0.4,1c0,0.3,0.1,0.5,0.3,0.8c0.3,0.4,1.2,1.1,2.8,2.2c1.5,1,2.5,1.9,3,2.6s0.7,1.5,0.7,2.4
	c0,0.8-0.2,1.6-0.6,2.4s-1,1.4-1.7,1.8c-0.7,0.4-1.5,0.6-2.4,0.6c-0.7,0-1.6-0.2-2.8-0.6c-0.3-0.1-0.5-0.2-0.6-0.2
	c-0.3,0-0.6,0.3-0.8,0.8h-0.5l-0.2-5.2h0.5c0.5,1.4,1.1,2.4,1.9,3c0.8,0.7,1.6,1,2.3,1c0.5,0,0.9-0.2,1.2-0.5s0.5-0.7,0.5-1.1
	c0-0.5-0.2-0.9-0.5-1.3s-1-0.9-2.1-1.6c-1.6-1.1-2.6-1.9-3-2.5c-0.7-0.8-1-1.8-1-2.8c0-1.1,0.4-2.1,1.1-3c0.8-0.9,1.9-1.3,3.3-1.3
	c0.8,0,1.5,0.2,2.3,0.6c0.3,0.2,0.5,0.2,0.7,0.2s0.3,0,0.4-0.1c0.1-0.1,0.3-0.3,0.5-0.7L50.2,140.5L50.2,140.5z M59.1,135.6v5.3h3.4
	v1.5h-3.4v8.9c0,0.8,0,1.4,0.1,1.6s0.2,0.4,0.4,0.6c0.2,0.1,0.4,0.2,0.5,0.2c0.7,0,1.3-0.5,1.9-1.5l0.5,0.3c-0.8,2-2.2,3-4,3
	c-0.9,0-1.7-0.3-2.3-0.8s-1-1.1-1.2-1.7c-0.1-0.3-0.2-1.3-0.2-2.8v-7.8h-1.9v-0.5c1.3-0.9,2.4-1.9,3.3-2.9c0.9-1,1.7-2.1,2.4-3.4
	L59.1,135.6L59.1,135.6z M69.9,140.9v3.3c1-1.5,1.8-2.5,2.5-3s1.4-0.7,2.1-0.7c0.6,0,1,0.2,1.4,0.5c0.3,0.4,0.5,0.9,0.5,1.5
	c0,0.7-0.2,1.2-0.5,1.6c-0.3,0.4-0.7,0.6-1.2,0.6s-1-0.2-1.4-0.5s-0.6-0.5-0.7-0.6s-0.2-0.1-0.4-0.1c-0.3,0-0.6,0.1-0.8,0.3
	c-0.4,0.3-0.7,0.8-1,1.5c-0.3,1-0.5,2.1-0.5,3.3v4.2c0,0.6,0,1,0.1,1.1c0.1,0.3,0.3,0.5,0.5,0.6s0.6,0.2,1.2,0.2v0.6h-7.8v-0.6
	c0.6-0.1,1-0.2,1.3-0.5c0.2-0.3,0.3-1.1,0.3-2.3v-8c0-0.8,0-1.3-0.1-1.6s-0.3-0.5-0.4-0.6c-0.2-0.1-0.5-0.2-1-0.3v-0.6L69.9,140.9z
	 M85.8,153.1c-1.8,1.5-3.3,2.3-4.7,2.3c-0.8,0-1.5-0.3-2-0.8s-0.8-1.2-0.8-2c0-1.1,0.5-2.1,1.4-3s3-2,6.2-3.5v-1.4
	c0-1.1-0.1-1.8-0.2-2.1s-0.3-0.5-0.7-0.7c-0.3-0.2-0.7-0.3-1.1-0.3c-0.7,0-1.2,0.1-1.6,0.4c-0.3,0.2-0.4,0.4-0.4,0.6
	c0,0.2,0.1,0.5,0.4,0.8c0.4,0.4,0.6,0.9,0.6,1.3c0,0.5-0.2,0.9-0.6,1.3c-0.4,0.4-0.9,0.5-1.5,0.5s-1.2-0.2-1.6-0.6
	c-0.4-0.4-0.7-0.8-0.7-1.4c0-0.7,0.3-1.4,0.9-2.1s1.4-1.2,2.4-1.5c1-0.4,2.1-0.5,3.3-0.5c1.4,0,2.4,0.3,3.2,0.9
	c0.8,0.6,1.3,1.2,1.5,1.9c0.1,0.4,0.2,1.4,0.2,3v5.6c0,0.7,0,1.1,0.1,1.2c0.1,0.2,0.1,0.3,0.2,0.4c0.1,0.1,0.2,0.1,0.4,0.1
	c0.3,0,0.5-0.2,0.8-0.6l0.5,0.4c-0.5,0.8-1,1.3-1.6,1.7s-1.2,0.5-1.9,0.5c-0.8,0-1.5-0.2-1.9-0.6C86.2,154.5,85.9,153.9,85.8,153.1
	L85.8,153.1z M85.8,152v-4.8c-1.2,0.7-2.2,1.5-2.8,2.3c-0.4,0.6-0.6,1.1-0.6,1.7c0,0.5,0.2,0.9,0.5,1.2s0.6,0.4,1.1,0.4
	C84.5,152.9,85.1,152.6,85.8,152L85.8,152z M99.3,134.4v17.9c0,1,0.1,1.7,0.4,1.9s0.7,0.4,1.4,0.5v0.6h-7.8v-0.6
	c0.6,0,1.1-0.2,1.4-0.6c0.2-0.2,0.3-0.9,0.3-1.9v-14.8c0-1-0.1-1.6-0.4-1.9s-0.7-0.4-1.4-0.5v-0.6L99.3,134.4L99.3,134.4z
	 M108,140.9v11.4c0,1,0.1,1.7,0.4,1.9s0.7,0.4,1.4,0.5v0.6H102v-0.6c0.6,0,1.1-0.2,1.4-0.6c0.2-0.2,0.3-0.9,0.3-1.9v-8.4
	c0-1-0.1-1.7-0.4-1.9s-0.7-0.4-1.4-0.5v-0.6C101.9,140.8,108,140.9,108,140.9z M105.9,133.9c0.7,0,1.2,0.2,1.7,0.7s0.7,1,0.7,1.7
	s-0.2,1.2-0.7,1.7s-1,0.7-1.7,0.7s-1.2-0.2-1.7-0.7s-0.7-1-0.7-1.7s0.2-1.2,0.7-1.7C104.6,134.1,105.2,133.9,105.9,133.9z
	 M119.1,153.1c-1.8,1.5-3.3,2.3-4.7,2.3c-0.8,0-1.5-0.3-2-0.8s-0.8-1.2-0.8-2c0-1.1,0.5-2.1,1.4-3s3-2,6.2-3.5v-1.4
	c0-1.1-0.1-1.8-0.2-2.1s-0.3-0.5-0.7-0.7c-0.3-0.2-0.7-0.3-1.1-0.3c-0.7,0-1.2,0.1-1.6,0.4c-0.3,0.2-0.4,0.4-0.4,0.6
	c0,0.2,0.1,0.5,0.4,0.8c0.4,0.4,0.6,0.9,0.6,1.3c0,0.5-0.2,0.9-0.6,1.3c-0.4,0.4-0.9,0.5-1.5,0.5s-1.2-0.2-1.6-0.6
	c-0.4-0.4-0.7-0.8-0.7-1.4c0-0.7,0.3-1.4,0.9-2.1s1.4-1.2,2.4-1.5c1-0.4,2.1-0.5,3.3-0.5c1.4,0,2.4,0.3,3.2,0.9
	c0.8,0.6,1.3,1.2,1.5,1.9c0.1,0.4,0.2,1.4,0.2,3v5.6c0,0.7,0,1.1,0.1,1.2c0.1,0.2,0.1,0.3,0.2,0.4c0.1,0.1,0.2,0.1,0.4,0.1
	c0.3,0,0.5-0.2,0.8-0.6l0.5,0.4c-0.5,0.8-1,1.3-1.6,1.7s-1.2,0.5-1.9,0.5c-0.8,0-1.5-0.2-1.9-0.6
	C119.5,154.5,119.2,153.9,119.1,153.1L119.1,153.1z M119.1,152v-4.8c-1.2,0.7-2.2,1.5-2.8,2.3c-0.4,0.6-0.6,1.1-0.6,1.7
	c0,0.5,0.2,0.9,0.5,1.2s0.6,0.4,1.1,0.4C117.8,152.9,118.4,152.6,119.1,152L119.1,152z M132.8,140.9v1.9c0.7-0.8,1.4-1.4,2.1-1.7
	c0.7-0.3,1.4-0.5,2.2-0.5c0.9,0,1.7,0.3,2.3,0.8s1,1.2,1.2,1.9c0.2,0.6,0.2,1.7,0.2,3.4v5.6c0,1.1,0.1,1.8,0.3,2.1s0.6,0.4,1.3,0.5
	v0.6h-7.3v-0.6c0.5-0.1,0.9-0.3,1.2-0.7c0.2-0.3,0.2-0.9,0.2-1.9v-6.4c0-1.2,0-1.9-0.1-2.2s-0.2-0.5-0.5-0.7
	c-0.2-0.2-0.5-0.3-0.7-0.3c-0.9,0-1.7,0.6-2.5,1.9v7.7c0,1.1,0.1,1.8,0.3,2s0.6,0.5,1.1,0.5v0.6h-7.3v-0.6c0.6-0.1,1-0.3,1.3-0.6
	c0.2-0.2,0.3-0.9,0.3-2v-8.1c0-1.1-0.1-1.8-0.3-2c-0.2-0.3-0.6-0.4-1.3-0.5V141L132.8,140.9L132.8,140.9L132.8,140.9z M173,133.9
	v7.4h-0.6c-0.7-2-1.7-3.5-3.1-4.6c-1.4-1.1-2.9-1.6-4.5-1.6s-2.9,0.4-3.9,1.3s-1.8,2.1-2.2,3.7c-0.4,1.6-0.6,3.2-0.6,4.8
	c0,2,0.2,3.8,0.7,5.3s1.2,2.6,2.3,3.3s2.3,1.1,3.7,1.1c0.5,0,1-0.1,1.5-0.2s1.1-0.3,1.6-0.5v-4.3c0-0.8-0.1-1.4-0.2-1.6
	s-0.3-0.5-0.7-0.7s-0.8-0.3-1.3-0.3h-0.5v-0.5h10.1v0.6c-0.8,0.1-1.3,0.2-1.6,0.3c-0.3,0.2-0.5,0.4-0.7,0.8
	c-0.1,0.2-0.1,0.7-0.1,1.4v4.3c-1.3,0.6-2.7,1-4.2,1.3c-1.4,0.3-2.9,0.5-4.5,0.5c-2,0-3.6-0.3-4.9-0.8s-2.5-1.2-3.5-2.1
	c-1-0.9-1.8-1.9-2.3-3c-0.7-1.4-1.1-3-1.1-4.8c0-3.1,1.1-5.8,3.3-8s5-3.2,8.3-3.2c1,0,2,0.1,2.8,0.2c0.5,0.1,1.2,0.3,2.2,0.7
	s1.6,0.6,1.8,0.6c0.3,0,0.6-0.1,0.8-0.3s0.5-0.6,0.7-1.2L173,133.9z M183.6,140.4c1.3,0,2.4,0.3,3.5,1c1.1,0.6,1.9,1.6,2.5,2.8
	s0.8,2.5,0.8,3.9c0,2-0.5,3.8-1.6,5.1c-1.3,1.7-3,2.5-5.2,2.5s-3.8-0.8-5-2.3s-1.8-3.3-1.8-5.3c0-2.1,0.6-3.9,1.8-5.4
	S181.6,140.4,183.6,140.4z M183.7,141.5c-0.5,0-1,0.2-1.3,0.6c-0.4,0.4-0.6,1.2-0.7,2.3c-0.1,1.2-0.2,2.8-0.2,4.9
	c0,1.1,0.1,2.1,0.2,3.1c0.1,0.7,0.4,1.3,0.7,1.7c0.4,0.4,0.8,0.6,1.3,0.6s0.8-0.1,1.2-0.4c0.4-0.3,0.7-0.8,0.8-1.5
	c0.2-1,0.3-2.9,0.3-5.9c0-1.7-0.1-2.9-0.3-3.6s-0.5-1.1-0.9-1.4C184.5,141.6,184.1,141.5,183.7,141.5L183.7,141.5z M199.1,155.7
	l-4.8-11.2c-0.6-1.3-1-2.2-1.4-2.6c-0.2-0.3-0.6-0.4-1-0.5v-0.6h7.7v0.6c-0.5,0-0.8,0.1-1,0.3s-0.4,0.5-0.4,0.8
	c0,0.4,0.2,1.1,0.7,2.1l2.4,5.4l1.9-4.7c0.5-1.3,0.8-2.3,0.8-2.8c0-0.3-0.1-0.6-0.3-0.8s-0.6-0.3-1.2-0.3v-0.6h4.7v0.6
	c-0.5,0.1-0.8,0.2-1.1,0.5s-0.7,1.1-1.3,2.4l-4.8,11.3L199.1,155.7L199.1,155.7z M220.6,147.6h-7.9c0.1,1.9,0.6,3.4,1.5,4.5
	c0.7,0.9,1.6,1.3,2.6,1.3c0.6,0,1.2-0.2,1.7-0.5s1-1,1.6-1.9l0.5,0.3c-0.8,1.6-1.6,2.7-2.6,3.4c-0.9,0.7-2,1-3.3,1
	c-2.1,0-3.8-0.8-4.8-2.5c-0.9-1.3-1.3-3-1.3-4.9c0-2.4,0.6-4.3,1.9-5.7c1.3-1.4,2.8-2.1,4.6-2.1c1.5,0,2.7,0.6,3.8,1.8
	S220.5,145.2,220.6,147.6L220.6,147.6z M216.8,146.5c0-1.7-0.1-2.8-0.3-3.4c-0.2-0.6-0.5-1.1-0.8-1.4c-0.2-0.2-0.5-0.3-0.9-0.3
	c-0.5,0-1,0.3-1.3,0.8c-0.6,0.9-0.9,2.2-0.9,3.8v0.5L216.8,146.5L216.8,146.5z M228.3,140.9v3.3c1-1.5,1.8-2.5,2.5-3
	s1.4-0.7,2.1-0.7c0.6,0,1,0.2,1.4,0.5c0.3,0.4,0.5,0.9,0.5,1.5c0,0.7-0.2,1.2-0.5,1.6c-0.3,0.4-0.7,0.6-1.2,0.6s-1-0.2-1.4-0.5
	s-0.6-0.5-0.7-0.6c-0.1-0.1-0.2-0.1-0.4-0.1c-0.3,0-0.6,0.1-0.8,0.3c-0.4,0.3-0.7,0.8-1,1.5c-0.3,1-0.5,2.1-0.5,3.3v4.2
	c0,0.6,0,1,0.1,1.1c0.1,0.3,0.3,0.5,0.5,0.6s0.6,0.2,1.2,0.2v0.6h-7.8v-0.6c0.6-0.1,1-0.2,1.3-0.5c0.2-0.3,0.3-1.1,0.3-2.3v-8
	c0-0.8,0-1.3-0.1-1.6s-0.3-0.5-0.4-0.6c-0.2-0.1-0.5-0.2-1-0.3v-0.6L228.3,140.9L228.3,140.9z M242.2,140.9v1.9
	c0.7-0.8,1.4-1.4,2.1-1.7c0.7-0.3,1.4-0.5,2.2-0.5c0.9,0,1.7,0.3,2.3,0.8s1,1.2,1.2,1.9c0.2,0.6,0.2,1.7,0.2,3.4v5.6
	c0,1.1,0.1,1.8,0.3,2.1s0.6,0.4,1.3,0.5v0.6h-7.3v-0.6c0.5-0.1,0.9-0.3,1.2-0.7c0.2-0.3,0.2-0.9,0.2-1.9v-6.4c0-1.2,0-1.9-0.1-2.2
	s-0.2-0.5-0.5-0.7c-0.2-0.2-0.5-0.3-0.7-0.3c-0.9,0-1.7,0.6-2.5,1.9v7.7c0,1.1,0.1,1.8,0.3,2c0.2,0.3,0.6,0.5,1.1,0.5v0.6h-7.3v-0.6
	c0.6-0.1,1-0.3,1.3-0.6c0.2-0.2,0.3-0.9,0.3-2v-8.1c0-1.1-0.1-1.8-0.3-2c-0.2-0.3-0.6-0.4-1.3-0.5V141L242.2,140.9L242.2,140.9
	L242.2,140.9z M259.9,140.9v1.9c0.8-0.9,1.5-1.5,2.2-1.8s1.4-0.5,2.2-0.5c0.9,0,1.7,0.2,2.3,0.6c0.6,0.4,1.1,1.1,1.4,2
	c0.8-0.9,1.6-1.6,2.4-2s1.5-0.6,2.4-0.6c1,0,1.8,0.2,2.4,0.7s1,1,1.2,1.7s0.3,1.8,0.3,3.4v5.9c0,1.1,0.1,1.8,0.3,2.1
	c0.2,0.3,0.6,0.4,1.3,0.5v0.6h-7.4v-0.6c0.6-0.1,1-0.3,1.3-0.7c0.2-0.3,0.3-0.9,0.3-1.9V146c0-1.3-0.1-2.1-0.2-2.4s-0.3-0.6-0.5-0.8
	s-0.5-0.3-0.8-0.3c-0.4,0-0.9,0.2-1.3,0.5s-0.9,0.8-1.4,1.5v7.7c0,1,0.1,1.7,0.3,2c0.2,0.4,0.7,0.6,1.4,0.6v0.6h-7.4v-0.6
	c0.4,0,0.7-0.1,0.9-0.3c0.2-0.2,0.4-0.4,0.5-0.6c0.1-0.3,0.1-0.8,0.1-1.6v-6.2c0-1.3-0.1-2.1-0.2-2.4c-0.1-0.3-0.3-0.6-0.5-0.8
	s-0.5-0.3-0.8-0.3c-0.4,0-0.8,0.1-1.1,0.3c-0.5,0.3-1,0.9-1.5,1.6v7.7c0,1,0.1,1.7,0.3,2c0.2,0.3,0.6,0.5,1.3,0.6v0.6h-7.4v-0.6
	c0.6-0.1,1-0.3,1.3-0.6c0.2-0.2,0.3-0.9,0.3-2v-8.1c0-1.1-0.1-1.8-0.3-2c-0.2-0.3-0.6-0.4-1.3-0.5V141h5.7L259.9,140.9L259.9,140.9z
	 M292.3,147.6h-7.9c0.1,1.9,0.6,3.4,1.5,4.5c0.7,0.9,1.6,1.3,2.6,1.3c0.6,0,1.2-0.2,1.7-0.5s1-1,1.6-1.9l0.5,0.3
	c-0.8,1.6-1.6,2.7-2.6,3.4c-0.9,0.7-2,1-3.3,1c-2.1,0-3.8-0.8-4.8-2.5c-0.9-1.3-1.3-3-1.3-4.9c0-2.4,0.7-4.3,1.9-5.7
	c1.3-1.4,2.8-2.1,4.6-2.1c1.5,0,2.7,0.6,3.8,1.8S292.3,145.2,292.3,147.6L292.3,147.6z M288.5,146.5c0-1.7-0.1-2.8-0.3-3.4
	c-0.2-0.6-0.5-1.1-0.8-1.4c-0.2-0.2-0.5-0.3-0.9-0.3c-0.5,0-1,0.3-1.3,0.8c-0.6,0.9-0.9,2.2-0.9,3.8v0.5L288.5,146.5L288.5,146.5z
	 M300,140.9v1.9c0.7-0.8,1.4-1.4,2.1-1.7s1.4-0.5,2.2-0.5c0.9,0,1.7,0.3,2.3,0.8c0.6,0.5,1,1.2,1.2,1.9c0.2,0.6,0.2,1.7,0.2,3.4v5.6
	c0,1.1,0.1,1.8,0.3,2.1c0.2,0.3,0.6,0.4,1.3,0.5v0.6h-7.3v-0.6c0.5-0.1,0.9-0.3,1.2-0.7c0.2-0.3,0.2-0.9,0.2-1.9v-6.4
	c0-1.2,0-1.9-0.1-2.2s-0.2-0.5-0.5-0.7c-0.2-0.2-0.5-0.3-0.7-0.3c-0.9,0-1.7,0.6-2.5,1.9v7.7c0,1.1,0.1,1.8,0.3,2
	c0.2,0.3,0.6,0.5,1.1,0.5v0.6h-7.2v-0.6c0.6-0.1,1-0.3,1.3-0.6c0.2-0.2,0.3-0.9,0.3-2v-8.1c0-1.1-0.1-1.8-0.3-2
	c-0.2-0.3-0.6-0.4-1.3-0.5V141L300,140.9L300,140.9L300,140.9z M317.4,135.6v5.3h3.4v1.5h-3.4v8.9c0,0.8,0,1.4,0.1,1.6
	s0.2,0.4,0.4,0.6c0.2,0.1,0.4,0.2,0.5,0.2c0.7,0,1.3-0.5,1.9-1.5l0.5,0.3c-0.8,2-2.2,3-4,3c-0.9,0-1.7-0.3-2.3-0.8
	c-0.6-0.5-1-1.1-1.2-1.7c-0.1-0.3-0.2-1.3-0.2-2.8v-7.8h-1.9v-0.5c1.3-0.9,2.4-1.9,3.3-2.9s1.7-2.1,2.4-3.4L317.4,135.6L317.4,135.6
	z"/>
</svg>
